<?xml version="1.0" encoding="UTF-8"?>
<svg id="Capa_1" data-name="Capa 1" xmlns="http://www.w3.org/2000/svg" viewBox="0 0 30 30">
  <path d="M0,19.65c.93-1.21,1.8-2.33,2.79-3.61.96,1.25,1.85,2.4,2.76,3.57q-1.81.21-1.4,1.55c.35,1.11,1.02,2.09,2.05,2.93,1.29,1.06,2.88,1.4,4.53.96,1.73-.46,2.73-1.53,2.77-3.02.04-2.01.05-4.03.07-6.04.02-1.52.03-3.05.08-4.57.02-.46-.16-.62-.79-.61-1.56.03-3.13.03-4.7,0-.48,0-.82.19-1.21.3-.69.2-1.3.08-1.75-.36-.42-.41-.45-.86-.07-1.29.38-.43,1.02-.68,1.6-.45,1.25.5,2.55.26,3.83.31.76.03,1.53-.03,2.29.02.7.04.85-.17.84-.65-.02-1.14,0-2.29.05-3.43.02-.41-.12-.67-.6-.94-1.61-.9-1.78-2.53-.45-3.58,1.27-1,3.42-1,4.68,0,1.33,1.06,1.15,2.66-.45,3.58-.38.22-.6.4-.58.78.05,1.22.06,2.45.04,3.67,0,.43.17.56.74.56,1.64-.03,3.28-.02,4.91,0,.44,0,.73-.2,1.1-.3.68-.18,1.31-.09,1.76.37.41.41.43.87.05,1.3-.38.42-1.01.68-1.6.44-1.25-.51-2.56-.3-3.84-.31-1,0-2.33-.37-2.9.17-.48.46-.15,1.4-.14,2.14.03,2.91.08,5.82.13,8.74.03,1.62.97,2.7,2.78,3.17,1.74.46,3.37.06,4.74-1.16,1.07-.96,1.67-2.08,1.98-3.31.17-.67.02-.99-.97-.88-.17.02-.35,0-.75-.02.96-1.24,1.85-2.39,2.82-3.64.96,1.25,1.84,2.39,2.83,3.67-1.56-.25-1.56.4-1.64,1.17-.36,3.46-3.58,6.23-8.55,7.33-1.65.37-3.34.61-4.51,1.66-.32.29-.49.03-.68-.11-.94-.73-2.11-1.1-3.42-1.35-4.79-.92-8.24-2.92-9.36-6.71-.09-.29-.12-.59-.16-.89q-.14-1.05-1.68-1.16ZM15.03,3.89c1.04,0,1.95-.67,1.98-1.45.03-.83-.87-1.51-1.99-1.51-1.08,0-1.94.63-1.96,1.43-.02.83.87,1.53,1.97,1.52Z" style="fill: #eee; stroke-width: 0px;"/>
</svg>