<?xml version="1.0" encoding="UTF-8"?>
<svg id="Capa_1" data-name="Capa 1" xmlns="http://www.w3.org/2000/svg" viewBox="0 0 35.28 32.69">
  <path d="M17.62,26.83c-5.09,0-10.19,0-15.28,0-1.13,0-1.95-.57-2.24-1.56C.02,25.01,0,24.75,0,24.49c0-6.08,0-12.16,0-18.24,0-1.45.91-2.37,2.36-2.37,4.07,0,8.15,0,12.22,0,.33,0,.39.1.39.4-.01,2.73.03,5.46-.02,8.18-.02,1.23.49,2.09,1.43,2.77,1.18.85,2.53,1.31,3.94,1.58,3.14.62,6.25.55,9.33-.39,1.02-.31,1.97-.76,2.79-1.46.72-.62,1.1-1.37,1.09-2.36-.03-2.76-.01-5.53-.01-8.29,0-.42.03-.44.42-.26.76.34,1.21.92,1.31,1.76.02.17.03.34.03.5,0,6.03,0,12.06,0,18.1,0,1.24-.6,2.09-1.65,2.36-.26.07-.52.06-.79.06-5.07,0-10.14,0-15.21,0ZM16.27,22.74c-1.89,0-3.77,0-5.66,0-.12,0-.24,0-.36.01-.22.03-.34.17-.34.39,0,.22.12.36.33.41.1.02.22.01.32.01,3.81,0,7.62,0,11.43,0,.1,0,.19,0,.29,0,.24-.03.38-.18.38-.4,0-.23-.13-.38-.37-.41-.11-.01-.22,0-.32,0-1.9,0-3.8,0-5.7,0ZM28.28,19.66c-1.42,0-2.83,0-4.25,0-.27,0-.48.09-.5.4-.02.32.2.43.49.45.07,0,.14,0,.22,0,2.69,0,5.38,0,8.06,0,.14,0,.29,0,.43-.04.3-.1.37-.45.16-.67-.13-.14-.3-.13-.47-.13-1.38,0-2.76,0-4.14,0ZM5.55,10.85c-.13-.02-.24.08-.35.17-.9.74-1.8,1.48-2.7,2.22-.36.29-.36.52,0,.81.55.46,1.12.91,1.67,1.37.37.3.74.61,1.11.91.18.14.38.16.56,0,.16-.13.18-.32.1-.49-.05-.1-.15-.19-.24-.26-.72-.59-1.44-1.19-2.18-1.77-.17-.13-.18-.21,0-.34.23-.17.45-.36.67-.54.53-.43,1.06-.87,1.59-1.3.18-.15.24-.33.16-.54-.06-.16-.19-.24-.4-.24ZM10.86,16.44c.12,0,.21-.05.29-.12.93-.76,1.86-1.52,2.78-2.28.32-.27.32-.5,0-.77-.29-.25-.59-.49-.89-.73-.63-.52-1.26-1.03-1.89-1.55-.19-.16-.39-.19-.59-.03-.16.13-.2.31-.1.48.06.11.17.2.27.28.71.59,1.43,1.17,2.15,1.75.16.13.19.21,0,.34-.26.19-.5.41-.75.61-.51.42-1.02.84-1.53,1.25-.17.14-.24.31-.15.51.07.17.21.26.4.25ZM6.26,19.66c-1.1,0-2.21,0-3.31,0-.29,0-.51.1-.51.42,0,.33.23.42.51.43.02,0,.05,0,.07,0,2.15,0,4.3,0,6.45,0,.38,0,.6-.17.6-.43,0-.27-.21-.42-.59-.42-1.07,0-2.14,0-3.21,0ZM7.04,16.4c.01.24.13.38.33.44.2.05.35-.04.45-.21.04-.07.06-.16.08-.24.47-1.75.94-3.49,1.41-5.24.02-.08.04-.16.05-.25.01-.24-.11-.39-.34-.44-.22-.04-.37.07-.46.27-.03.08-.05.16-.07.24-.46,1.7-.91,3.4-1.37,5.1-.03.12-.06.23-.08.33ZM10.32,7.98c.76,0,1.51,0,2.27,0,.35,0,.55-.16.55-.42,0-.26-.21-.42-.56-.43-1.5,0-3,0-4.49,0-.37,0-.55.15-.55.43,0,.28.18.42.55.42.74,0,1.49,0,2.23,0ZM5.24,23.57c.78,0,1.56,0,2.34,0,.37,0,.56-.15.54-.42-.02-.33-.24-.41-.53-.4-1.55,0-3.1,0-4.65,0-.28,0-.51.07-.53.4-.02.27.17.42.54.42.76,0,1.51,0,2.27,0ZM4.08,7.13c-.37,0-.74,0-1.12,0-.36,0-.55.16-.54.44.02.32.24.41.52.41.77,0,1.54,0,2.3,0,.29,0,.5-.11.5-.43,0-.3-.21-.41-.48-.41-.4,0-.79,0-1.19,0ZM20.3,19.66c-.38,0-.77,0-1.15,0-.28,0-.48.12-.49.41,0,.29.19.43.47.44.79,0,1.59,0,2.38,0,.28,0,.47-.15.45-.45-.01-.27-.2-.39-.47-.39-.4,0-.79,0-1.19,0ZM13.28,20.51c.38,0,.77,0,1.15,0,.28,0,.5-.12.48-.45-.02-.3-.22-.4-.5-.4-.76,0-1.51,0-2.27,0-.29,0-.52.1-.53.41,0,.31.22.44.5.44.38,0,.77,0,1.15,0ZM31.52,23.57c.35,0,.7,0,1.04,0,.29,0,.48-.13.47-.42,0-.27-.18-.4-.45-.4-.7,0-1.39,0-2.09,0-.27,0-.45.15-.44.42,0,.26.18.41.45.41.34,0,.67,0,1.01,0ZM26.46,23.57c.34,0,.67,0,1.01,0,.29,0,.47-.13.47-.42,0-.27-.19-.4-.45-.4-.7,0-1.39,0-2.09,0-.27,0-.44.15-.44.42,0,.26.18.41.45.41.35,0,.7,0,1.04,0Z" style="fill: #81d4f7; stroke-width: 0px;"/>
  <path d="M24.07,6.91c-1.89-.03-3.93-.28-5.87-1.09-.68-.28-1.32-.64-1.84-1.18-.73-.77-.73-1.59,0-2.36.63-.66,1.42-1.08,2.27-1.35,3.8-1.26,7.61-1.26,11.41.06.71.25,1.36.61,1.92,1.11.96.86.98,1.81.03,2.68-.89.82-2,1.22-3.14,1.54-1.5.42-3.04.57-4.78.59Z" style="fill: #81d4f7; stroke-width: 0px;"/>
  <path d="M32.69,5.28c0,1.05.02,2.02,0,2.99-.02.58-.39,1-.81,1.35-.94.79-2.06,1.22-3.24,1.49-3.29.77-6.56.74-9.8-.31-.8-.26-1.56-.63-2.21-1.17-.57-.47-.88-1.05-.85-1.81.04-.81,0-1.63,0-2.45.03,0,.06-.03.07-.02,1.31,1.14,2.88,1.69,4.55,2.01,3.09.6,6.16.53,9.18-.39,1.12-.34,2.17-.84,3.1-1.7Z" style="fill: #0e577e; stroke-width: 0px;"/>
  <path d="M15.78,10.01c.91.82,1.91,1.31,2.99,1.66,1.94.64,3.94.84,5.96.79,2.03-.05,4.01-.35,5.9-1.15.73-.31,1.4-.72,2-1.25.1.11.06.23.06.33,0,.68-.04,1.37.01,2.05.07.94-.36,1.58-1.08,2.1-1.02.74-2.19,1.14-3.4,1.39-3.15.65-6.27.6-9.35-.39-.84-.27-1.63-.65-2.3-1.23-.54-.47-.83-1.03-.8-1.76.03-.71,0-1.42,0-2.13v-.42Z" style="fill: #0e577e; stroke-width: 0px;"/>
  <path d="M17.61,32.69c-1.63,0-3.27,0-4.9,0-.11,0-.22,0-.32,0-.26-.03-.44-.16-.43-.44.01-.27.19-.4.46-.4.74,0,1.49-.01,2.23,0,.27,0,.39-.07.48-.34.39-1.2.38-2.39-.03-3.57-.09-.26-.03-.29.22-.29,1.55,0,3.1,0,4.65,0,.24,0,.31.03.22.29-.42,1.19-.43,2.39-.02,3.6.08.24.19.31.43.3.73-.02,1.47,0,2.2,0,.29,0,.5.08.54.4.03.26-.18.44-.54.44-1.73,0-3.46,0-5.19,0Z" style="fill: #0e577e; stroke-width: 0px;"/>
</svg>