<?xml version="1.0" encoding="UTF-8"?>
<svg id="Capa_1" data-name="Capa 1" xmlns="http://www.w3.org/2000/svg" viewBox="0 0 30 30">
  <path d="M24,27.48c-1.38,3.3-4.58,3.4-6.01.02-1.32,3.19-4.51,3.47-6,0-1.29,3.12-4.48,3.52-6.01-.01-.57,1.29-1.34,2.11-2.36,2.42-1.31.39-2.81-.56-3.53-2.26-.17-.4-.12-.84.12-1.08.23-.24.52-.15.71.24.57,1.19,1.34,1.76,2.31,1.65.5-.06.94-.35,1.34-.82.12-.14.13-.22.02-.39-.27-.39-.56-.77-.75-1.26-.51-1.29-.36-2.75.41-3.91,2.77-4.2,5.54-8.39,8.31-12.59.35-.52.69-1.05,1.04-1.57.85-1.26,1.91-1.32,2.83-.18.83,1.03,1.59.97,2.35-.18.18-.28.36-.57.55-.84.25-.35.49-.69.44-1.3-.03-.35.15-.64.31-.89.32-.48.63-.96.95-1.44.39-.58.78-.69,1.27-.3.16.12.2,0,.26-.14.3-.63.6-1.25.9-1.88.47-.97,1.11-1.05,1.67-.2.6.9,1.2,1.8,1.79,2.71.56.85.51,1.82-.12,2.53-.42.47-.84.94-1.26,1.39-.11.11-.14.18-.07.39.25.69.19,1.28-.17,1.86-.33.53-.67,1.03-1.01,1.54-.23.34-.5.52-.82.45-.15-.03-.23.06-.32.2-.3.46-.61.91-.9,1.37-.69,1.06-.71,2.22-.09,3.37.65,1.19.75,2.45.29,3.66-.12.32-.29.58-.46.84-1.06,1.61-2.12,3.22-3.18,4.82-.14.21-.17.35-.07.63.48,1.38,1.23,2.13,2.25,2.13,1.03,0,1.78-.75,2.25-2.14.16-.48.37-.85.75-.86.38,0,.59.37.75.85.89,2.61,3.07,2.92,4.26.61.1-.19.18-.4.34-.46.22-.08.42-.03.56.26.16.33.11.64-.03.96-1.33,3-4.32,3.06-5.7.12-.05-.11-.11-.23-.17-.34ZM5.3,26.16c.19-.52.48-.78.88-.65.31.1.45.46.58.85.3.92.77,1.55,1.41,1.9.08.05.18.17.26.07.08-.11,0-.26-.03-.39-.25-1.25-.13-2.32.51-3.28,2.28-3.42,4.54-6.87,6.81-10.3.47-.71,1.03-1.03,1.7-.88.84.2,1.45.89,1.84,2.02.19.56.16.76-.14,1.2-.49.74-.98,1.5-1.47,2.25.43.35.86.53,1.3.11.33-.31.58-.28.77.09.18.36.14.72-.13,1.12-1.71,2.59-3.42,5.18-5.13,7.77-.05.08-.15.14-.13.29.07.03.14.08.21.09.43.03.89.25,1.25-.28,1.87-2.81,3.73-5.64,5.59-8.46.45-.68.46-1.46.07-2.2-.05-.1-.11-.2-.16-.29-.78-1.42-.79-3.42,0-4.81.33-.59.7-1.12,1.07-1.66.1-.15.12-.25,0-.41-.62-.93-1.24-1.86-1.86-2.81-.13-.2-.19-.12-.29.03-.27.42-.54.83-.82,1.24-1.06,1.57-2.4,1.65-3.54.23-.61-.77-1.08-.74-1.64.11-3.01,4.56-6.01,9.15-9.05,13.68-.95,1.41-.75,2.32.11,3.37ZM15.3,17.12c-1.96,2.97-3.89,5.91-5.83,8.84-.16.24-.22.52-.21.86,0,.47.13.88.27,1.29.08.23.16.26.32.17.68-.39,1.15-1.1,1.46-2.08.14-.45.37-.72.71-.71.32,0,.55.27.68.7.13.4.28.76.47,1.1.14.26.23.24.38,0,1.37-2.1,2.75-4.18,4.12-6.27.06-.08.14-.14.13-.27-1.16-.67-1.99-1.85-2.51-3.64ZM21.8,4.11s-.06.07-.08.1c-.29.45-.59.9-.89,1.34-.1.14-.02.21.03.3.86,1.31,1.72,2.61,2.58,3.92.09.13.15.18.25.02.27-.42.54-.84.82-1.24.11-.15.08-.24-.01-.38-.86-1.3-1.73-2.61-2.59-3.91-.03-.05-.08-.1-.11-.14ZM26.26,4.46s-.05-.09-.08-.13c-.57-.87-1.14-1.75-1.71-2.63-.11-.17-.15-.12-.23.04-.31.67-.63,1.33-.95,1.99-.09.18-.11.29,0,.47.43.62.85,1.26,1.26,1.9.11.17.18.14.28.02.43-.49.87-.96,1.31-1.45.05-.05.12-.08.11-.21ZM16.87,17.97c.42-.65.84-1.29,1.26-1.92.1-.15.08-.26,0-.39-.24-.4-.54-.63-.89-.71-.57-.12-1.01.54-.9,1.4.07.59.24,1.14.53,1.61Z" style="fill: #eee; stroke-width: 0px;"/>
</svg>