<?xml version="1.0" encoding="UTF-8"?>
<svg id="Capa_1" data-name="Capa 1" xmlns="http://www.w3.org/2000/svg" viewBox="0 0 34.96 24.92">
  <path d="M34.94,20.36c-.2,2.29-2,4.23-4.21,4.51-2.46.33-4.67-1-5.45-3.29-.11-.29-.23-.38-.54-.38-1.56.02-3.12.01-4.68.01-3.57-.01-6.3-2.76-6.31-6.33-.01-1.67.02-3.35-.01-5.02-.04-1.93-1.64-3.53-3.55-3.61-.26-.02-.38.04-.47.31-.72,2.21-2.9,3.64-5.17,3.41C2.18,9.73.33,7.92.04,5.57-.27,3.05,1.42.7,3.95.12c2.43-.55,4.96.87,5.75,3.26.1.3.24.38.54.38,4.85-.01,9.69-.01,14.54,0,.27,0,.39-.06.49-.35.73-2.25,3.06-3.71,5.34-3.36,2.52.39,4.3,2.37,4.35,4.83.05,2.46-1.71,4.63-4.07,5.02-2.51.42-4.86-.97-5.64-3.34-.07-.21-.13-.32-.39-.32-3.27.01-6.54.01-9.89.01.59.81.98,1.65,1.15,2.57.08.44.12.88.12,1.32v4.68c.01,2.28,1.61,3.89,3.9,3.9,1.54,0,3.09-.01,4.64,0,.26,0,.39-.05.48-.34.79-2.39,3.23-3.8,5.69-3.31s4.19,2.79,3.99,5.29Z" style="fill: #eee; stroke-width: 0px;"/>
</svg>