<?xml version="1.0" encoding="UTF-8"?>
<svg id="Capa_1" data-name="Capa 1" xmlns="http://www.w3.org/2000/svg" viewBox="0 0 27.95 27.96">
  <path d="M13.98,27.96c-.27-.03-.37-.22-.42-.48-.1-.58-.24-1.16-.33-1.74-.05-.33-.18-.46-.53-.51-5.51-.81-9.12-4.43-9.98-10-.05-.32-.16-.44-.47-.49-.58-.09-1.16-.23-1.74-.33-.25-.04-.5-.11-.52-.4-.02-.29.22-.38.47-.44.72-.17,1.66-.02,2.1-.52.41-.47.29-1.37.5-2.06C4.53,6.25,7.74,3.53,12.6,2.74c.42-.07.6-.19.65-.61.07-.56.21-1.11.31-1.67.04-.24.14-.45.39-.46.28-.01.4.2.45.47.13.71.06,1.63.48,2.06.42.43,1.35.31,2.03.52,4.73,1.44,7.48,4.62,8.29,9.48.08.46.21.68.69.73.54.06,1.07.2,1.61.3.24.04.44.14.45.39.01.3-.21.39-.47.44-.71.14-1.62.07-2.06.49-.43.42-.32,1.35-.53,2.03-1.44,4.76-4.66,7.5-9.55,8.29-.43.07-.6.21-.66.62-.08.56-.21,1.12-.31,1.68-.04.24-.15.41-.42.46ZM3.81,12.92s.09-.01.13-.02c2.38-.45,4.76-.9,7.14-1.33.34-.06.45-.25.51-.56.43-2.34.86-4.67,1.31-7.01.08-.42,0-.53-.45-.46-2.63.42-4.81,1.63-6.54,3.65-1.31,1.53-2.07,3.32-2.37,5.3-.03.2-.13.47.26.42ZM24.44,12.66c-.02-.1-.04-.16-.05-.22-.69-4.6-4.25-8.16-8.83-8.87-.56-.09-.57.1-.49.53.37,1.9.72,3.81,1.09,5.72.11.55,0,1.28.4,1.6.39.32,1.07.29,1.62.39,1.91.36,3.81.73,5.72,1.07.2.04.56.25.54-.22ZM12.94,24.18c-.02-.1-.02-.14-.03-.19-.44-2.36-.89-4.71-1.32-7.07-.06-.32-.19-.49-.52-.55-2.36-.43-4.72-.87-7.07-1.33-.46-.09-.51.07-.44.47.23,1.37.66,2.67,1.39,3.85,1.74,2.82,4.25,4.49,7.52,5.02.21.03.52.18.47-.21ZM24.46,15.17c.05-.24-.23-.17-.47-.12-2.38.44-4.76.9-7.13,1.33-.31.06-.43.21-.48.51-.43,2.34-.87,4.67-1.31,7.01-.08.4-.06.59.46.5,1.19-.21,2.34-.55,3.4-1.13,3.14-1.73,4.94-4.39,5.54-8.1ZM15.38,14c.02-.74-.59-1.39-1.34-1.43-.76-.04-1.44.6-1.46,1.37-.02.77.63,1.42,1.41,1.42.75,0,1.38-.62,1.4-1.37Z" style="fill: #e8e8e8; stroke-width: 0px;"/>
  <path d="M11.35,10.15c-.09.95-.2,1.06-1.12,1.19-.27.04-.44-.04-.6-.26-.87-1.17-1.76-2.33-2.64-3.5-.16-.21-.34-.44-.08-.69.26-.25.48-.06.69.1,1.17.88,2.33,1.76,3.5,2.64.19.14.34.28.25.52Z" style="fill: #e8e8e8; stroke-width: 0px;"/>
  <path d="M16.58,10.01c-.04-.14.12-.25.28-.38,1.19-.89,2.37-1.79,3.55-2.68.2-.15.41-.29.64-.06.23.22.12.44-.03.64-.91,1.2-1.82,2.4-2.72,3.61-.35.47-.76.07-1.14.09-.31,0-.4-.19-.43-.46-.02-.22-.08-.43-.15-.74Z" style="fill: #e8e8e8; stroke-width: 0px;"/>
  <path d="M10.08,16.6c.91.01,1.25.37,1.29,1.25,0,.24-.12.35-.28.47-1.17.88-2.33,1.76-3.5,2.64-.21.16-.43.35-.69.09-.25-.26-.07-.48.09-.69.88-1.17,1.76-2.33,2.64-3.5.12-.16.22-.34.44-.27Z" style="fill: #e8e8e8; stroke-width: 0px;"/>
  <path d="M17.86,16.59c.24-.05.35.12.47.28.88,1.17,1.76,2.33,2.64,3.5.16.21.34.44.08.69-.26.25-.48.06-.69-.1-1.11-.84-2.2-1.73-3.35-2.51-.57-.39-.32-.8-.29-1.25.03-.48.38-.46.69-.51.15-.03.3-.06.45-.1Z" style="fill: #e8e8e8; stroke-width: 0px;"/>
</svg>