<?xml version="1.0" encoding="UTF-8"?>
<svg id="Capa_1" data-name="Capa 1" xmlns="http://www.w3.org/2000/svg" viewBox="0 0 25.15 28.44">
  <path d="M25.14.29c.04-.25-.09-.29-.28-.29H.7Q-.05.04.03.82s-.01.1-.01.14c.01.48.15.94.1,1.42.13.46.1.94.12,1.41H.24c.09.09.08.19.06.29.07.38-.04.77.1,1.14.02.48.15.94.1,1.42.13.43.09.88.12,1.32.07.63.22,1.26.16,1.9,0,.07.01.13.01.2.13.21.09.44.07.66.09.47.14.94.13,1.41.12.53.13,1.08.16,1.62.03.47.15.94.1,1.42.13.62.17,1.26.19,1.89.02.18.03.35.05.53.08.61.16,1.22.14,1.84.15.39.1.81.13,1.21.05.55.1,1.09.15,1.63.02.48.16.94.1,1.42.17.5.12,1.02.18,1.53.04.27.09.41.38.48.29.06.61.1.87.27.69.12,1.36.31,2,.56.06.01.12.02.19.03.27.04.54.09.78.24h0c.21.04.42.09.63.14.08-.01.14.02.19.08.22,0,.4.06.58.16,1.16.25,2.29.59,3.42.96h-.01c.24.01.48.08.7.19h.03s.03.01.03.01c.13-.02.25.04.37.1.13,0,.26-.01.38-.01.13-.13.32-.09.48-.15.09-.02.19-.04.28-.06.92-.35,1.89-.54,2.84-.81.5-.15.99-.33,1.52-.39.01-.03.03-.04.06-.02.22-.11.45-.17.7-.19h-.01c1.4-.48,2.85-.81,4.27-1.22.06-.63.05-1.27.2-1.9.04-1.26.18-2.52.31-3.78.02-.13.04-.26.06-.38.04-.57.07-1.14.11-1.71.03-.35.06-.7.1-1.04.09-.54.02-1.09.18-1.61-.05-.48.06-.95.1-1.42.04-.54.04-1.09.16-1.62.01-.41,0-.82.12-1.22-.05-.48.06-.95.1-1.43-.09-.39.12-.75.09-1.13.09-.54.02-1.09.19-1.61-.06-.57.08-1.13.11-1.7.11-.88.1-1.78.27-2.66-.06-.48.08-.94.1-1.42-.05-.23.04-.45.07-.67ZM19.73,8.52c-.98.35-1.9.84-2.85,1.28-.5.23-1.03.36-1.54.58-.68.29-1.3.72-2.04.88-.14.03-.2.14-.25.26.16.1.32.05.46.05,2.02.01,4.04.01,6.06,0,.27,0,.5,0,.35.38,0,.06,0,.13-.01.19.01.21.07.42-.06.61l.02.03-.02.02c-.01.29.03.59-.07.87-.02.31-.04.62-.06.94-.04.44-.08.89-.12,1.33-.02.09-.03.18-.05.27-.02.86-.08,1.71-.18,2.56-.01.13-.02.26-.03.38.02.09.01.17-.06.23l.02.03v.02c-.07.66-.05,1.32-.22,1.97-.06.01-.11.03-.17.05-.45.35-.99.39-1.53.44l-.02.02h-.03s-.09.04-.14.06c-.05.01-.1.02-.16.03-.04.02-.08.03-.12.05-.08.02-.16.03-.24.05-.2.26-.51.27-.8.33-.23.04-.45.07-.67.11-.06.02-.12.04-.18.05-.07.02-.13.04-.2.05l-.02.03h-.03s-.09.03-.14.05c-.08.01-.16.03-.24.04-.04.02-.09.04-.14.06-.05.01-.1.02-.15.03-.05.02-.09.04-.13.06-.06.02-.13.03-.19.04-.3.16-.62.23-.95.27-.07.11-.19.08-.28.11-.07-.03-.14-.06-.21-.08-.06-.02-.12-.03-.18-.04-.31.07-.59-.07-.87-.18-.52-.19-1.03-.37-1.55-.56-1.24-.28-2.44-.71-3.67-1.04-.17-.05-.16-.15-.17-.28-.12-1.37-.23-2.73-.34-4.09q-.07-.64.57-.64c.75,0,1.51.02,2.26,0,.29-.01.39.08.41.36.04.74.12,1.49.18,2.23.76.17,1.52.32,2.25.58h.01c.5.02.97.31,1.49.23.02-.02.05-.03.09-.02.05-.06.11-.09.19-.07v-.03c.06,0,.13.01.2.01.07-.31.3-.13.47-.16.06-.01.13-.02.19-.03.05-.07.12-.08.19-.07.42-.15.86-.27,1.26-.46.28-.12.69.04.82-.26.13-.28.08-.65.1-.98.01-.09,0-.19.01-.28.11-.7-.09-1.42.13-2.12.06-.19.11-.43-.06-.63-.03,0-.06-.01-.08-.03h-1.99l-1.71.03c-1.87-.01-3.75-.02-5.62-.03-.21-.01-.41,0-.62,0q-1.07,0-1.14-1.09c-.04-.56-.06-1.13-.13-1.69-.04-.26.05-.36.27-.45.66-.26,1.32-.51,1.96-.82.99-.49,2.07-.78,3.06-1.27.72-.36,1.5-.57,2.22-.92-.01-.34-.28-.18-.42-.18-2.29-.01-4.57-.01-6.86-.01-.56,0-.67-.11-.66-.67v-.65c.03-.43-.18-.83-.18-1.25q-.06-.57.52-.57h7.08c.18,0,.35,0,.52-.02,2.47,0,4.93.01,7.4.01.61,0,.61,0,.58.6-.01.16,0,.31,0,.47-.06.5-.13,1-.19,1.5.06.46-.17.69-.6.84Z" style="fill: #eee; stroke-width: 0px;"/>
</svg>