<?xml version="1.0" encoding="UTF-8"?>
<svg id="Capa_1" data-name="Capa 1" xmlns="http://www.w3.org/2000/svg" viewBox="0 0 41.74 33.57">
  <path d="M41.74,16.78c0,4.69,0,9.38,0,14.08,0,1.69-1,2.7-2.68,2.7-3.67,0-7.34,0-11.01,0-1.66,0-2.68-1.01-2.68-2.67,0-1.7,0-3.41,0-5.11,0-.29-.04-.42-.38-.41-1.94.02-3.87.02-5.81,0-.32,0-.38.1-.37.39.02.57.02,1.15,0,1.72,0,.26.04.35.34.38,1.9.17,3.35,1.77,3.35,3.64,0,1.13-.87,2.05-2,2.06-3.57.01-7.15.01-10.72,0-1.3,0-2.19-1.16-1.98-2.5.28-1.8,1.58-3.04,3.4-3.21.22-.02.27-.08.26-.28-.01-.61-.02-1.23,0-1.84.01-.29-.08-.35-.36-.35-2.54.01-5.07,0-7.61,0C1.37,25.37,0,24,0,21.87,0,17.13,0,12.4,0,7.67c0-2.22,1.35-3.57,3.55-3.57,7.12,0,14.24,0,21.36,0,.35,0,.49-.06.47-.45-.02-.57-.08-1.15.05-1.71C25.68.81,26.64.01,27.8,0c3.83,0,7.66-.01,11.5,0,1.4,0,2.44,1.1,2.44,2.53,0,4.75,0,9.49,0,14.24ZM7.78,19.64c-.13.62-.38.82-1.01.82-1.58,0-3.16.01-4.74,0-.34,0-.42.1-.4.41.02.33,0,.65,0,.98,0,1.25.63,1.89,1.88,1.89,5.7,0,11.4,0,17.1,0,1.47,0,2.94,0,4.42,0,.27,0,.35-.07.34-.34-.02-.83-.02-1.66,0-2.49.01-.35-.07-.45-.44-.45-3.75.02-7.5.01-11.25,0-.64,0-.88-.2-1.01-.82.14-.62.38-.81,1.02-.81,3.76,0,7.52,0,11.29,0,.28,0,.4-.02.39-.36-.01-4.13-.01-8.26,0-12.39,0-.29-.08-.35-.36-.35-7.21,0-14.42,0-21.63,0-1.06,0-1.75.68-1.75,1.73,0,3.67,0,7.33-.01,11,0,.33.1.37.39.37,1.59-.01,3.19,0,4.78,0,.6,0,.85.21.98.81ZM40.1,16.8c0-4.69,0-9.38,0-14.07,0-.83-.27-1.09-1.11-1.09-3.64,0-7.28,0-10.92,0-.78,0-1.07.28-1.07,1.05,0,9.4,0,18.79,0,28.19,0,.77.28,1.05,1.06,1.05,3.64,0,7.28,0,10.92,0,.85,0,1.11-.26,1.11-1.13,0-4.66,0-9.33,0-13.99ZM15.14,31.92c1.72,0,3.43,0,5.15,0,.48,0,.63-.19.57-.66-.13-1.01-.98-1.78-2.02-1.79-2.46,0-4.93,0-7.39,0-1.02,0-1.85.74-2.02,1.74-.08.51.08.71.6.71,1.7,0,3.4,0,5.11,0ZM15.16,25.38c-.59,0-1.17,0-1.76,0-.22,0-.32.04-.32.29.02.63.01,1.25,0,1.88,0,.24.09.3.31.29,1.16,0,2.32-.01,3.47,0,.26,0,.32-.09.32-.33-.01-.6-.02-1.2,0-1.8,0-.28-.1-.34-.35-.34-.56.02-1.12,0-1.68,0Z" style="fill: #fff; stroke-width: 0px;"/>
  <path d="M7.78,19.64c-.13-.6-.38-.81-.98-.81-1.59,0-3.19,0-4.78,0-.29,0-.39-.04-.39-.37.01-3.67,0-7.33.01-11,0-1.05.69-1.73,1.75-1.73,7.21,0,14.42,0,21.63,0,.28,0,.36.06.36.35-.01,4.13-.01,8.26,0,12.39,0,.34-.12.36-.39.36-3.76,0-7.52,0-11.29,0-.65,0-.89.19-1.02.81-.54,0-1.08,0-1.62,0-.12-.55-.41-.82-.85-.81-.43.01-.69.28-.81.81-.54,0-1.08,0-1.62,0Z" style="fill: #81d4f7; stroke-width: 0px;"/>
  <path d="M40.1,16.8c0,4.66,0,9.33,0,13.99,0,.87-.26,1.13-1.11,1.13-3.64,0-7.28,0-10.92,0-.78,0-1.06-.28-1.06-1.05,0-9.4,0-18.79,0-28.19,0-.77.29-1.05,1.07-1.05,3.64,0,7.28,0,10.92,0,.84,0,1.11.26,1.11,1.09,0,4.69,0,9.38,0,14.07ZM33.53,8.19c.97,0,1.93,0,2.9,0,.9,0,1.65-.58,1.93-1.43.16-.48.1-.97.09-1.46-.01-1.11-.9-2-2.01-2.01-1.93-.01-3.87-.01-5.8,0-.92,0-1.7.64-1.94,1.53-.11.42-.06.84-.07,1.26,0,1.23.88,2.11,2.11,2.12.93,0,1.85,0,2.78,0ZM33.57,9.83c-.97,0-1.93,0-2.9,0-.95,0-1.72.64-1.96,1.56-.12.46-.07.92-.06,1.38.02,1.06.91,1.95,1.97,1.96,1.96.02,3.92.01,5.89,0,.81,0,1.52-.55,1.82-1.3.2-.49.14-.99.14-1.49,0-1.23-.88-2.1-2.11-2.11-.93,0-1.85,0-2.78,0ZM33.55,21.28c1.34,0,2.45-1.1,2.45-2.43,0-1.36-1.1-2.47-2.45-2.47-1.34,0-2.45,1.1-2.45,2.43,0,1.36,1.1,2.48,2.45,2.48ZM31.1,29.06h0c0-.14,0-.27,0-.41-.03-.47-.36-.81-.8-.82-.46-.01-.81.33-.83.82-.01.28-.02.57,0,.86.03.44.37.77.79.78.44.01.8-.32.83-.78.01-.15,0-.3,0-.45ZM34.37,29.08s0,0,0,0c0-.14,0-.27,0-.41-.02-.49-.36-.84-.82-.84-.46,0-.8.34-.82.84-.01.28-.02.57,0,.85.03.44.39.76.81.76.42,0,.77-.32.81-.76.01-.15,0-.3,0-.45ZM37.64,29.05h0c0-.14,0-.27,0-.41-.03-.47-.36-.8-.8-.81-.46,0-.81.33-.83.82-.01.28-.02.57,0,.86.03.44.38.76.8.77.44,0,.79-.32.83-.78.01-.15,0-.3,0-.45Z" style="fill: #0e577e; stroke-width: 0px;"/>
  <path d="M7.78,19.64c.54,0,1.08,0,1.62,0,.1.53.37.81.81.82.44.01.73-.27.85-.82.54,0,1.08,0,1.62,0,.13.62.37.82,1.01.82,3.75,0,7.5,0,11.25,0,.37,0,.45.1.44.45-.03.83-.02,1.66,0,2.49,0,.27-.07.34-.34.34-1.47-.01-2.94,0-4.42,0-5.7,0-11.4,0-17.1,0-1.25,0-1.88-.64-1.88-1.89,0-.33.02-.66,0-.98-.02-.31.06-.42.4-.41,1.58.02,3.16,0,4.74,0,.64,0,.88-.2,1.01-.82Z" style="fill: #0e577e; stroke-width: 0px;"/>
  <path d="M15.14,31.92c-1.7,0-3.4,0-5.11,0-.52,0-.68-.2-.6-.71.16-1.01.99-1.74,2.02-1.74,2.46,0,4.93,0,7.39,0,1.03,0,1.89.77,2.02,1.79.06.47-.1.66-.57.66-1.72,0-3.43,0-5.15,0Z" style="fill: #0e577e; stroke-width: 0px;"/>
  <path d="M15.16,25.38c.56,0,1.12.01,1.68,0,.26,0,.36.06.35.34-.02.6-.02,1.2,0,1.8,0,.24-.06.33-.32.33-1.16-.01-2.32-.01-3.47,0-.22,0-.32-.05-.31-.29.01-.63.02-1.25,0-1.88,0-.25.1-.29.32-.29.59.01,1.17,0,1.76,0Z" style="fill: #0e577e; stroke-width: 0px;"/>
  <path d="M11.06,19.64c-.12.55-.41.83-.85.82-.43-.01-.71-.29-.81-.82.12-.53.38-.8.81-.81.44-.01.73.26.85.81Z" style="fill: #fff; stroke-width: 0px;"/>
  <path d="M33.53,8.19c-.93,0-1.85,0-2.78,0-1.23,0-2.11-.88-2.11-2.12,0-.42-.05-.84.07-1.26.24-.89,1.01-1.53,1.94-1.53,1.93,0,3.87-.01,5.8,0,1.11,0,1.99.9,2.01,2.01,0,.49.06.98-.09,1.46-.28.86-1.03,1.43-1.93,1.43-.97,0-1.93,0-2.9,0ZM33.51,6.55c.78,0,1.55,0,2.33,0q.99,0,.98-1c0-.53-.11-.63-.66-.63-1.62,0-3.24,0-4.87,0q-1.04,0-1.02,1.04c0,.48.12.59.61.59.87,0,1.75,0,2.62,0Z" style="fill: #fff; stroke-width: 0px;"/>
  <path d="M33.57,9.83c.93,0,1.85,0,2.78,0,1.24,0,2.11.88,2.11,2.11,0,.5.06,1-.14,1.49-.3.75-1.01,1.3-1.82,1.3-1.96.01-3.92.02-5.89,0-1.06,0-1.95-.9-1.97-1.96,0-.46-.06-.92.06-1.38.23-.92,1.01-1.55,1.96-1.56.97,0,1.93,0,2.9,0ZM33.55,11.46h-2.29q-.99,0-.98,1c0,.53.11.63.66.63,1.62,0,3.24,0,4.87,0q1.04,0,1.02-1.04c0-.48-.12-.59-.62-.59-.89,0-1.77,0-2.66,0Z" style="fill: #fff; stroke-width: 0px;"/>
  <path d="M33.55,21.28c-1.36,0-2.46-1.11-2.45-2.48,0-1.34,1.11-2.43,2.45-2.43,1.36,0,2.46,1.11,2.45,2.47,0,1.34-1.11,2.43-2.45,2.43ZM33.54,19.66c.46,0,.83-.36.84-.82,0-.46-.36-.83-.82-.84-.46,0-.83.36-.84.82,0,.46.36.83.82.84Z" style="fill: #fff; stroke-width: 0px;"/>
  <path d="M31.1,29.06c0,.15.01.3,0,.45-.04.46-.4.79-.83.78-.42-.01-.77-.33-.79-.78-.02-.28-.02-.57,0-.86.02-.49.38-.83.83-.82.44.01.77.35.8.82,0,.14,0,.27,0,.41h0Z" style="fill: #fff; stroke-width: 0px;"/>
  <path d="M34.37,29.08c0,.15.01.3,0,.45-.04.44-.39.76-.81.76-.42,0-.78-.32-.81-.76-.02-.28-.01-.57,0-.85.02-.49.36-.84.82-.84.46,0,.79.35.82.84,0,.14,0,.27,0,.41,0,0,0,0,0,0Z" style="fill: #fff; stroke-width: 0px;"/>
  <path d="M37.64,29.05c0,.15,0,.3,0,.45-.04.46-.39.79-.83.78-.42,0-.77-.33-.8-.77-.02-.28-.01-.57,0-.86.02-.49.37-.83.83-.82.44,0,.77.35.8.81,0,.14,0,.27,0,.41h0Z" style="fill: #fff; stroke-width: 0px;"/>
  <path d="M33.51,6.55c-.87,0-1.75,0-2.62,0-.49,0-.61-.12-.61-.59q-.01-1.04,1.02-1.04c1.62,0,3.24,0,4.87,0,.55,0,.65.11.66.63q0,1-.98,1c-.78,0-1.55,0-2.33,0Z" style="fill: #0e577e; stroke-width: 0px;"/>
  <path d="M33.55,11.46c.89,0,1.77,0,2.66,0,.49,0,.61.12.62.59q.02,1.04-1.02,1.04c-1.62,0-3.24,0-4.87,0-.55,0-.65-.11-.66-.63q0-1,.98-1c.76,0,1.53,0,2.29,0Z" style="fill: #0e577e; stroke-width: 0px;"/>
  <path d="M33.54,19.66c-.46,0-.82-.38-.82-.84,0-.46.38-.82.84-.82.46,0,.82.38.82.84,0,.46-.38.82-.84.82Z" style="fill: #0e577e; stroke-width: 0px;"/>
</svg>