<?xml version="1.0" encoding="UTF-8"?>
<svg id="Capa_1" data-name="Capa 1" xmlns="http://www.w3.org/2000/svg" viewBox="0 0 39.06 39.03">
  <path d="M11.8,1.56c.69-.25,1.38-.5,2.07-.75.7-.23,1.44-.34,2.15-.52.41-.05.82-.09,1.24-.14.37-.03.74-.06,1.1-.1.38-.08.77-.02,1.16-.05.38.02.77.03,1.15.05.42.03.84.07,1.27.1.24.03.47.06.71.09.92.16,1.83.37,2.73.64.38.16.76.32,1.17.4.78.36,1.57.73,2.35,1.09.19.17.42.27.65.38.17.12.34.23.51.35.35.22.71.45,1.06.67.08.09.12.23.27.22.26.32.64.5.94.78.13.17.26.32.47.4.18.22.39.43.62.61.16.16.31.32.47.47.23.29.47.57.7.86.12.15.21.33.39.43.47.71.95,1.43,1.42,2.14.19.43.42.84.69,1.22v.03c.14.44.32.85.55,1.25,0,.25.17.45.24.68.17.53.35,1.05.53,1.58-.01.41.13.79.24,1.17.03.23.06.47.1.7-.01.05.02.07.06.09,0,.13.01.25.02.38.05.39.1.78.15,1.17v.32c0,.06.01.1.06.13,0,.24.01.49.02.73,0,.39,0,.78,0,1.17,0,.11-.01.23-.02.34-.05.03-.07.07-.06.13,0,.24,0,.47-.01.71-.12.38-.13.78-.17,1.17-.09.39-.18.79-.27,1.18-.09.39-.18.78-.26,1.17-.04.03-.05.07,0,.1-.05.03-.07.07-.06.13-.02.05-.03.09-.05.14-.09.27-.18.53-.26.8-.16.39-.32.78-.48,1.17-.35.81-.79,1.57-1.22,2.33-.09.16-.18.31-.27.47-.2.21-.36.45-.48.72-.27.34-.54.68-.81,1.01-1,1.22-2.14,2.3-3.39,3.27-.13.11-.31.15-.39.31-.29.12-.54.31-.78.51-.38.27-.83.41-1.19.72-.43.22-.87.43-1.3.65-.73.26-1.44.59-2.19.81l-1.18.32c-.39.06-.78.13-1.16.26-.83.1-1.67.2-2.5.3l-1.01.03c-.38-.01-.76-.02-1.14-.04,0,0,0,0,0,0-.03-.01-.07-.03-.1-.04-.25-.02-.51-.03-.76-.05-.1-.07-.22-.03-.33-.03-.11,0-.23-.01-.34-.02-.03-.05-.07-.07-.13-.06-.1,0-.2-.01-.3-.02-.02-.04-.04-.07-.09-.06-.11,0-.21,0-.32-.01-.35-.13-.72-.19-1.09-.24-.37-.1-.74-.19-1.11-.29-.83-.31-1.65-.62-2.48-.92-.34-.17-.68-.34-1.02-.51-.08-.05-.16-.1-.24-.15-.27-.19-.55-.35-.85-.47-.92-.64-1.83-1.29-2.68-2.03-.36-.31-.64-.71-1.05-.96-.02-.13-.13-.19-.21-.27-.67-.7-1.23-1.5-1.83-2.25-.07-.12-.14-.24-.21-.36l-.5-.74c-.39-.74-.83-1.45-1.14-2.22-.15-.39-.3-.77-.45-1.16l-.29-.79c-.02-.17-.06-.33-.16-.47,0-.05-.01-.1-.02-.15,0-.06-.01-.1-.06-.13.02-.29-.12-.54-.17-.81-.07-.39-.15-.78-.22-1.17-.07-.39-.01-.79-.16-1.17.04-.39-.01-.78-.08-1.17,0-.39,0-.78,0-1.17l.08-1.17c.05-.39.09-.78.14-1.18.05-.39.1-.77.15-1.16.13-.22.09-.48.17-.72.02-.02.03-.04.01-.07,0-.14.14-.24.09-.39.27-.78.53-1.56.8-2.34.15-.35.37-.67.47-1.05.06-.11.12-.23.18-.34.18-.24.31-.51.4-.8.57-.82,1.04-1.71,1.71-2.48.09-.03.11-.11.13-.19.28-.33.57-.67.85-1,.14-.08.21-.22.31-.34.29-.28.57-.55.86-.83.1-.09.21-.18.31-.27.32-.34.76-.53,1.06-.9.06,0,.1,0,.11-.07.78-.49,1.56-.98,2.34-1.48.39-.19.78-.38,1.17-.58.08-.05.16-.09.24-.14.1.01.16-.06.23-.1ZM21.09,17.48c0-3.13,0-6.27,0-9.4,0-.23-.02-.32-.3-.32-1.18.02-2.37.02-3.55,0-.29,0-.37.06-.36.36.02,1.74,0,3.48,0,5.23,0,.25.09.59-.03.71-.16.15-.47-.04-.72-.08-.04,0-.08,0-.12,0-1.41-.12-2.78.03-4.1.55-1.33.52-2.38,1.39-3.07,2.62-1,1.78-1.19,3.71-.79,5.7.37,1.81,1.34,3.17,3,4,1.39.69,2.9.91,4.43.93,1.73.02,3.43-.21,5.14-.5.4-.07.47-.21.47-.58-.02-3.07,0-6.14,0-9.2ZM19.48,31.56c1.05.5,2.08.92,3.05,1.47.64.36,1.12.28,1.71-.08,1.35-.82,2.35-1.92,2.89-3.41.54-1.48.63-3.03.65-4.57.04-3.47,0-6.94.02-10.41,0-.26-.07-.32-.32-.32-1.17.01-2.34.02-3.51,0-.29,0-.39.06-.39.38.01,3.01.03,6.03,0,9.04-.01,1.2-.06,2.4-.3,3.59-.31,1.49-1.05,2.67-2.35,3.5-.46.29-.96.49-1.45.81ZM23.59,9.94c0,.65,0,1.3,0,1.95,0,.14,0,.22.2.22,1.25-.01,2.5-.01,3.75,0,.23,0,.27-.08.27-.29,0-1.25,0-2.49,0-3.74,0-.19-.04-.27-.25-.27-1.24.01-2.47,0-3.71,0-.21,0-.26.06-.26.26.01.62,0,1.25,0,1.87Z" style="fill: #eee; stroke-width: 0px;"/>
  <path d="M16.88,20.89c0,1,0,2,0,3,0,.28-.04.38-.36.41-.74.07-1.47.09-2.2-.09-1.16-.29-1.81-1.07-2.05-2.18-.19-.89-.17-1.79.13-2.67.38-1.14,1.19-1.73,2.33-1.95.62-.12,1.23-.08,1.84.07.22.05.31.14.3.38-.02,1.01,0,2.02,0,3.04Z" style="fill: #eee; stroke-width: 0px;"/>
</svg>