<?xml version="1.0" encoding="UTF-8"?>
<svg id="Capa_1" data-name="Capa 1" xmlns="http://www.w3.org/2000/svg" viewBox="0 0 19.34 29.05">
  <path d="M19.02,12.8c-.65-1.65-1.91-2.62-3.61-3.03-.19-.02-.37-.04-.58-.06.21-.04.39-.06.6-.07.19-.06.37-.09.56-.15,2.15-.69,3.51-2.79,3.33-5.1-.17-2.13-1.91-4.04-4.08-4.28-1.85-.21-3.72-.06-5.57-.06C7.97.05,6.25-.02,4.57.07,1.58.22-.5,2.93.12,5.85c.41,2.02,1.74,3.25,3.72,3.78.22.04.45.07.67.09-.22.02-.43.04-.65.06-.22.07-.43.13-.65.22-1.76.69-2.86,1.96-3.14,3.83-.26,1.83.36,3.35,1.79,4.52.73.58,1.57.84,2.43,1.05-.19.04-.39.06-.58.11C1.32,20.07-.29,22.41.04,24.84c.34,2.47,2.5,4.3,4.97,4.21s4.54-2.06,4.64-4.49c.07-1.72,0-3.44,0-5.18.02-1.36.02-2.73.04-4.09.06.17.09.36.15.54.77,2.67,3.55,4.17,6.17,3.31,2.64-.88,4-3.74,3.01-6.34ZM9.73,13.79s-.02.07-.04.11c-.02-1.38-.02-2.77-.02-4.17.36-.09.71-.04,1.07-.04,1.12,0,2.22.02,3.35.02-2.32.3-3.89,1.76-4.36,4.08Z" style="fill: #eee; stroke-width: 0px;"/>
</svg>
