<?xml version="1.0" encoding="UTF-8"?>
<svg id="Capa_1" data-name="Capa 1" xmlns="http://www.w3.org/2000/svg" viewBox="0 0 30.18 27.86">
  <path d="M14.56,27.86c-3.64,0-7.28,0-10.92,0C1.49,27.86,0,26.37,0,24.21,0,16.97,0,9.73,0,2.49,0,.97.97,0,2.5,0,5.24,0,7.98.01,10.73,0c1.37,0,2.52.46,3.48,1.44.59.6,1.2,1.19,1.79,1.8.94.95,2.07,1.42,3.41,1.41,1.99,0,3.99,0,5.98,0,1.47,0,2.46.98,2.46,2.45,0,.28,0,.56,0,.83,0,.16-.05.21-.2.2-.64,0-1.28,0-1.92,0-.16,0-.21-.05-.2-.21.01-.22-.02-.44,0-.65.03-.27-.08-.31-.32-.31-1.92.01-3.84,0-5.77,0-2,.01-3.7-.69-5.11-2.1-.61-.62-1.23-1.23-1.85-1.85-.47-.47-1.03-.7-1.69-.69-2.72,0-5.44,0-8.16,0-.28,0-.33.07-.33.34,0,7.19,0,14.39,0,21.58,0,.77.47,1.3,1.15,1.3.7,0,1.17-.53,1.17-1.32,0-4.15,0-8.29,0-12.44,0-1.52.97-2.49,2.49-2.49,6.85,0,13.71,0,20.56,0,1.5,0,2.48.98,2.48,2.47,0,3.8,0,7.59,0,11.39,0,2.66-2.05,4.71-4.7,4.72-3.64,0-7.28,0-10.92,0Z" style="fill: #eee; stroke-width: 0px;"/>
</svg>
