<?xml version="1.0" encoding="UTF-8"?>
<svg id="Capa_1" data-name="Capa 1" xmlns="http://www.w3.org/2000/svg" viewBox="0 0 30.81 29.85">
  <defs>
    <style>
      .cls-1 {
        fill: #81d4f7;
      }

      .cls-1, .cls-2 {
        stroke-width: 0px;
      }

      .cls-2 {
        fill: #0e577e;
      }
    </style>
  </defs>
  <path class="cls-1" d="M15.36,21.7c-5.07,0-10.15,0-15.22,0-.14,0-.14-.05-.14-.15,0-.76,0-1.52,0-2.28,0-4.23,0-8.45,0-12.68,0-1.07.95-1.87,1.86-1.87.82,0,1.63,0,2.45,0,.18,0,.18.08.18.22,0,4.54,0,9.08,0,13.61,0,.2.04.39.12.58.25.59.71.89,1.34.93.17,0,.34,0,.5,0,6.11,0,12.22,0,18.32,0,.81,0,1.52-.69,1.52-1.52,0-4.55,0-9.1,0-13.65,0-.18.06-.17.18-.17.8,0,1.61,0,2.41,0,1.05,0,1.87.81,1.91,1.86,0,.12,0,.25,0,.37,0,4.84,0,9.69,0,14.53,0,.2-.06.23-.24.23-2.13,0-4.26,0-6.4,0-2.94,0-5.87,0-8.81,0Z"/>
  <path class="cls-1" d="M15.4,19.31c-3.06,0-6.12,0-9.18,0-.2,0-.4.01-.58-.09-.28-.16-.41-.4-.41-.72,0-1.12,0-2.24,0-3.37,0-2.07,0-4.14,0-6.21,0-.16.03-.21.2-.21.49.01.97,0,1.46,0,.14,0,.2.03.22.19.21,1.42,1.33,2.59,2.74,2.9,1.68.36,3.26-.49,3.96-1.97.14-.3.24-.62.28-.94.02-.14.07-.17.2-.17.91,0,1.82,0,2.73,0,2.79,0,5.57,0,8.36,0,.17,0,.21.04.21.21,0,3.18,0,6.36,0,9.54,0,.55-.31.85-.86.85-3.1,0-6.21,0-9.31,0ZM19.65,18.18h0c1.07,0,2.14,0,3.22,0,.93,0,1.62-.78,1.6-1.62-.02-.68,0-1.36,0-2.04,0-.59-.29-1.01-.76-1.33-.27-.18-.57-.24-.88-.24-2.11,0-4.22,0-6.34,0-.9,0-1.66.69-1.64,1.65,0,.64,0,1.27,0,1.91,0,1,.67,1.67,1.67,1.68,1.05,0,2.09,0,3.14,0ZM19.65,10.66h0c-.43,0-.86,0-1.29,0-.74,0-1.48,0-2.22,0-.23,0-.36.12-.38.32-.03.24.15.4.47.4,2.14,0,4.29,0,6.43,0,.17,0,.35,0,.52,0,.11,0,.23-.02.3-.12.08-.11.12-.24.06-.37-.07-.15-.18-.22-.35-.22-1.18,0-2.35,0-3.53,0ZM9.89,13.95c.26,0,.52,0,.79,0,.79,0,1.57,0,2.36,0,.25,0,.41-.17.39-.4-.02-.21-.18-.34-.46-.34-1.84,0-3.68,0-5.51,0-.24,0-.47,0-.71,0-.26,0-.41.18-.39.42.02.19.18.31.42.31,1.04,0,2.08,0,3.12,0ZM9.9,17.18h0c-.36,0-.71,0-1.07,0-.69,0-1.38,0-2.07,0-.27,0-.43.16-.41.4.01.22.16.34.43.34,1.73,0,3.45,0,5.18,0,.36,0,.72,0,1.08,0,.29,0,.47-.28.33-.53-.08-.15-.22-.2-.39-.2-1.03,0-2.06,0-3.08,0ZM9.91,15.22s0,0,0,0c-1.05,0-2.09,0-3.14,0-.27,0-.42.15-.42.37,0,.22.16.35.42.35,2.08,0,4.15,0,6.23,0,.27,0,.43-.14.43-.36,0-.21-.15-.35-.41-.36-1.03,0-2.07,0-3.1,0Z"/>
  <path class="cls-2" d="M15.42,22.41c5.07,0,10.13,0,15.2,0,.14,0,.16.03.16.17,0,.42-.01.82-.23,1.19-.36.6-.89.93-1.59.96-.12,0-.24,0-.36,0-8.86,0-17.73,0-26.59,0-1.01,0-1.75-.57-1.96-1.5-.05-.24-.04-.48-.04-.73,0-.07.02-.1.1-.1.06,0,.11,0,.17,0,5.05,0,10.1,0,15.15,0Z"/>
  <path class="cls-1" d="M15.41,4.26c3.3,0,6.61,0,9.91,0q.25,0,.25.26c0,1.08,0,2.17,0,3.25,0,.18-.06.21-.22.21-3.67,0-7.34,0-11.01,0-.2,0-.25-.07-.28-.24-.2-1.12-.81-1.95-1.81-2.49-1.88-1.02-4.25-.12-4.98,1.89-.08.23-.16.46-.18.7,0,.11-.06.14-.17.14-.52,0-1.03,0-1.55,0-.11,0-.15-.03-.15-.15,0-1.13,0-2.26,0-3.38,0-.16.07-.2.21-.2,3.32,0,6.64,0,9.97,0h0Z"/>
  <path class="cls-2" d="M15.4,3.52c-3.33,0-6.66,0-9.98,0-.16,0-.19-.05-.19-.2,0-.84,0-1.68,0-2.52C5.23.32,5.55,0,6.02,0,12.28,0,18.54,0,24.79,0c.44,0,.77.32.78.76,0,.87,0,1.74,0,2.62,0,.16-.09.14-.19.14-3.33,0-6.66,0-9.98,0ZM18.61,2.13c.75,0,1.51,0,2.26,0,.21,0,.36-.12.39-.3.03-.17-.05-.3-.2-.38-.08-.04-.17-.04-.26-.04-1.46,0-2.93,0-4.39,0-.06,0-.11,0-.17.01-.17.04-.28.17-.29.34,0,.18.11.33.28.37.05.01.11.01.17.01.74,0,1.47,0,2.21,0ZM13.65.63c-.62,0-1.13.51-1.13,1.13,0,.63.52,1.13,1.15,1.13.62,0,1.11-.52,1.11-1.15,0-.61-.52-1.11-1.13-1.11ZM10.61,2.89c.62,0,1.13-.5,1.13-1.13,0-.62-.5-1.12-1.13-1.13-.62,0-1.13.5-1.13,1.13,0,.63.5,1.13,1.13,1.13ZM6.45,1.76c0,.63.5,1.12,1.13,1.12.62,0,1.13-.51,1.13-1.13,0-.62-.51-1.13-1.13-1.12-.62,0-1.13.51-1.12,1.13ZM24.38,1.76c0-.22-.17-.37-.43-.36-.16,0-.22-.03-.21-.2.01-.26-.13-.41-.34-.42-.22,0-.38.16-.37.42,0,.18-.05.22-.22.21-.25,0-.42.16-.42.37,0,.21.17.36.42.35.17,0,.22.04.21.22-.01.25.14.42.35.42.22,0,.38-.16.36-.42,0-.18.05-.22.22-.21.26.01.42-.15.42-.37Z"/>
  <path class="cls-2" d="M13.11,25.48c.08,0,.14,0,.2,0,1.4,0,2.8,0,4.21,0,.16,0,.2.01.14.19-.4,1.09-.41,2.19-.01,3.29.05.13.11.18.25.18.7,0,1.41,0,2.11,0,.22,0,.37.15.37.36,0,.21-.15.36-.36.37-.02,0-.05,0-.07,0-3.03,0-6.06,0-9.08,0-.26,0-.43-.14-.42-.37,0-.22.17-.37.43-.37.67,0,1.35,0,2.02,0,.18,0,.26-.06.32-.23.37-1.08.36-2.15-.02-3.22-.02-.06-.04-.13-.07-.21Z"/>
  <path class="cls-2" d="M8.39,10.1c-.46-.6-.68-1.27-.6-2.02.16-1.56,1.51-2.67,3.06-2.52,1.55.15,2.67,1.5,2.53,3.06-.04.49-.22.94-.5,1.35-.08.12-.13.11-.21,0-.2-.25-.45-.45-.74-.59-.14-.07-.17-.11-.06-.26.41-.53.47-1.12.17-1.72-.3-.59-.8-.9-1.46-.9-.66,0-1.16.32-1.45.92-.29.59-.22,1.18.18,1.71.09.12.11.17-.05.24-.34.17-.61.42-.87.72Z"/>
  <path class="cls-1" d="M10.61,11.16c-.54,0-1.04-.14-1.5-.42-.15-.09-.14-.17-.04-.29.57-.69,1.73-.89,2.5-.44.22.13.41.27.58.46.1.11.08.17-.04.24-.4.26-.97.44-1.5.44Z"/>
  <path class="cls-1" d="M10.57,9.02c-.5,0-.88-.4-.88-.89,0-.5.41-.9.9-.9.49,0,.9.42.89.91,0,.51-.4.88-.91.88Z"/>
  <path class="cls-2" d="M19.65,17.46c-1.04,0-2.08,0-3.12,0-.63,0-.97-.34-.96-.97,0-.62,0-1.25,0-1.87,0-.58.35-.93.93-.93,2.1,0,4.2,0,6.3,0,.6,0,.95.35.95.95,0,.62,0,1.25,0,1.87,0,.61-.34.96-.95.96-1.05,0-2.09,0-3.14,0Z"/>
  <path class="cls-1" d="M14.06,1.76c0,.23-.16.4-.39.41-.22,0-.41-.17-.42-.39,0-.21.18-.4.4-.4.23,0,.4.16.41.39Z"/>
  <path class="cls-1" d="M10.22,1.78c0-.23.16-.4.39-.4.23,0,.4.16.41.39,0,.23-.18.41-.41.41-.21,0-.38-.17-.39-.39Z"/>
  <path class="cls-1" d="M7.59,1.38c.22,0,.4.18.39.4,0,.2-.21.4-.42.39-.22,0-.4-.19-.39-.41,0-.23.18-.39.41-.38Z"/>
</svg>