<?xml version="1.0" encoding="UTF-8"?>
<svg id="Capa_1" data-name="Capa 1" xmlns="http://www.w3.org/2000/svg" viewBox="0 0 39.41 39.4">
  <path d="M21.13,14.73c.11.04.15.1.19.15,1.25,1.24,2.49,2.49,3.74,3.73.11.11.13.2.08.35-.6,1.8.57,3.69,2.44,3.94,1.89.25,3.24-1.16,3.42-2.64.17-1.49-.81-2.97-2.36-3.3-.49-.11-.98-.09-1.46.05-.11.03-.19.02-.28-.07-1.37-1.38-2.74-2.75-4.12-4.12-.09-.09-.12-.17-.08-.3.46-1.7-.54-3.38-2.26-3.77-.48-.11-.97-.09-1.44.05-.1.03-.18.03-.27-.06-1.44-1.44-2.88-2.88-4.32-4.33-.03-.03-.05-.06-.08-.09.02-.07.07-.1.11-.15,1.14-1.14,2.29-2.29,3.43-3.43C18.38.24,19.01-.02,19.73,0c.64.01,1.2.25,1.67.69.05.05.11.1.16.16,5.67,5.67,11.34,11.34,17.01,17,.29.29.53.6.67.98.34.98.18,1.86-.51,2.65-.05.06-.1.11-.16.16-5.65,5.64-11.29,11.29-16.93,16.94-.33.33-.7.6-1.16.72-.93.26-1.75.06-2.47-.58-.05-.04-.09-.08-.13-.13C12.19,32.9,6.51,27.21.82,21.53c-.33-.33-.58-.69-.71-1.14-.26-.94-.06-1.77.6-2.48.28-.31.59-.6.89-.89,3.59-3.59,7.18-7.18,10.77-10.77.2-.2.14-.2.35,0,1.38,1.38,2.76,2.76,4.14,4.13.11.11.14.19.08.35-.49,1.45.15,3.01,1.53,3.68.14.07.18.14.18.29,0,3.47,0,6.95,0,10.42,0,.15-.05.22-.18.29-.95.49-1.51,1.26-1.66,2.33-.21,1.52.82,3.14,2.6,3.37,1.89.24,3.25-1.17,3.39-2.64.12-1.3-.4-2.29-1.5-2.97-.11-.07-.16-.13-.16-.27,0-3.44,0-6.88,0-10.32v-.18Z" style="fill: #eee; stroke-width: 0px;"/>
</svg>
