<?xml version="1.0" encoding="UTF-8"?>
<svg id="Capa_1" data-name="Capa 1" xmlns="http://www.w3.org/2000/svg" viewBox="0 0 27.24 26.57">
  <path d="M13.62,0C6.1,0,0,6.1,0,13.62c0,6.02,3.9,11.12,9.31,12.92.68.13.93-.3.93-.66,0-.33-.01-1.4-.02-2.53-3.79.82-4.59-1.61-4.59-1.61-.62-1.57-1.51-1.99-1.51-1.99-1.24-.85.09-.83.09-.83,1.37.1,2.09,1.4,2.09,1.4,1.22,2.08,3.19,1.48,3.96,1.13.12-.88.47-1.48.86-1.82-3.03-.34-6.21-1.51-6.21-6.73,0-1.49.53-2.7,1.4-3.66-.14-.34-.61-1.73.13-3.6,0,0,1.14-.37,3.75,1.4,1.09-.3,2.25-.45,3.41-.46,1.16,0,2.32.16,3.41.46,2.6-1.76,3.74-1.4,3.74-1.4.74,1.88.28,3.26.13,3.6.87.95,1.4,2.17,1.4,3.66,0,5.23-3.19,6.38-6.22,6.72.49.42.92,1.25.92,2.52,0,1.82-.02,3.29-.02,3.74,0,.36.25.79.94.65,5.41-1.8,9.31-6.91,9.31-12.92C27.24,6.1,21.14,0,13.62,0h0Z" style="fill: #eee; stroke-width: 0px;"/>
</svg>