<?xml version="1.0" encoding="UTF-8"?>
<svg id="Capa_1" data-name="Capa 1" xmlns="http://www.w3.org/2000/svg" viewBox="0 0 31.36 31.36">
  <path d="M3.14,22.37c0-2.4-.02-4.8.01-7.21,0-.59-.17-.82-.75-.74-.18.03-.37,0-.55,0-.81.04-1.45-.25-1.74-1.04-.29-.8.04-1.41.68-1.91,1.8-1.43,3.59-2.87,5.38-4.3,2.75-2.2,5.5-4.4,8.26-6.6.96-.77,1.55-.77,2.51,0,4.49,3.59,8.97,7.17,13.45,10.76.88.71,1.14,1.32.87,2.06-.27.72-.83,1.02-1.91,1.03-1.25.01-1.12-.17-1.12,1.13,0,4.6,0,9.19,0,13.79,0,1.49-.52,2.01-2.04,2.01-1.8,0-3.6,0-5.41,0-1.42,0-1.95-.53-1.96-1.93,0-1.49,0-2.98,0-4.46-.02-1.9-1.36-3.31-3.13-3.3-1.78,0-3.11,1.41-3.13,3.31-.01,1.54,0,3.08,0,4.62-.01,1.16-.58,1.75-1.73,1.76-1.98.02-3.97.02-5.95,0-1.13,0-1.71-.61-1.72-1.78,0-2.4,0-4.8,0-7.21h0Z" style="fill: #e7e7e7; stroke-width: 0px;"/>
</svg>