<?xml version="1.0" encoding="UTF-8"?>
<svg id="Capa_1" data-name="Capa 1" xmlns="http://www.w3.org/2000/svg" viewBox="0 0 32.77 28.46">
  <path d="M29.28,14.84c-.01,3.31,0,6.62,0,9.92-.01,2.2-1.51,3.7-3.71,3.7H7.2c-2.2,0-3.7-1.5-3.7-3.7v-9.92c-.01-1.34.54-2.38,1.65-3.12,3.5-2.34,7-4.67,10.49-7.02.51-.34.99-.33,1.5,0,3.5,2.35,7.01,4.69,10.52,7.04,1.09.74,1.62,1.78,1.62,3.1Z" style="fill: #eee; stroke-width: 0px;"/>
  <path d="M32.29,12.15c-.42.32-.94.31-1.46-.05-1.41-.97-2.83-1.95-4.24-2.93-3.13-2.17-6.26-4.34-9.39-6.5-.63-.43-1.05-.42-1.67.01C11.02,5.82,6.51,8.95,2,12.07c-.56.39-1.06.42-1.49.11-.7-.5-.67-1.45.07-1.97,1.13-.79,2.27-1.58,3.4-2.36C7.36,5.5,10.75,3.14,14.14.78c1.51-1.04,2.92-1.05,4.44,0,1.53,1.05,3.05,2.11,4.58,3.16.07.05.14.09.26.17v-1.32c0-1.44,1-2.44,2.44-2.45h.91c1.51,0,2.5.99,2.51,2.49,0,1.67,0,3.35-.01,5.02,0,.25.08.39.28.53.89.6,1.78,1.21,2.65,1.83.73.52.77,1.44.09,1.95Z" style="fill: #eee; stroke-width: 0px;"/>
</svg>
