<?xml version="1.0" encoding="UTF-8"?>
<svg id="Capa_1" data-name="Capa 1" xmlns="http://www.w3.org/2000/svg" viewBox="0 0 28.61 32.53">
  <path d="M28.1.03c-.61,0-1.23-.02-1.85-.02-.09,0-.18-.01-.27-.01H5.61c-1.09,0-2.18,0-3.26.01-.28-.01-.55-.01-.82-.01-.27.01-.54.06-.81.02C.16-.07-.05.15,0,.7c.02.22.03.44.04.67.13.16.13.35.09.55,0,.13,0,.27.01.41.14.67.19,1.35.15,2.04.23.52.11,1.08.16,1.62.15.85.23,1.72.24,2.59.01.53.02,1.06.03,1.6.34.29.21.7.25,1.06.05.43.06.85.09,1.28.02.31.04.63.05.95.28.5.15,1.06.19,1.59.21,2.54.55,5.08.63,7.64.01.07.03.14.04.21,0,.06.03.13.05.19.02.41.04.81.06,1.21.16.82.21,1.64.23,2.47.12.67.21,1.34.16,2.03.05.7.72.56,1.1.81.65.11,1.29.27,1.9.54,1.47.32,2.92.75,4.35,1.22.6.16,1.19.32,1.79.48.53.16,1.09.23,1.59.5.94.41,1.82-.03,2.72-.18.56-.25,1.16-.41,1.77-.5.32-.18.67-.26,1.04-.3.06-.03.11-.06.17-.09.1-.01.19-.02.28-.03,1.51-.55,3.07-.91,4.62-1.33.68-.18,1.35-.37,2.03-.55.23-.12.14-.4.28-.57-.05-.69.03-1.36.16-2.03.01-.83.08-1.64.22-2.46.02-.4.05-.81.07-1.21-.03-.1-.03-.2.06-.28-.02-.05-.01-.09.03-.13-.03-.69.04-1.36.16-2.04-.13-.64.15-1.26.14-1.89.11-.77.04-1.56.25-2.31,0-.14,0-.28.01-.41-.03-1.33.24-2.62.33-3.94.06-1.04.09-2.1.33-3.12.01-.14.02-.27.02-.41.01-.91.08-1.82.25-2.72.01-.27.02-.54.03-.81.08-.95.17-1.9.26-2.86.01-.09.01-.18.02-.27.01-.09.02-.17.03-.26.04-.45.08-.91.12-1.36-.05-.32-.29-.27-.51-.27ZM23.08,8.16c.03.16.04.31-.07.44-.01.08-.02.16-.03.25,0,.37.16.85-.53.69h-.41c-.63.05-1.27.07-1.9.01-.09-.01-.18-.01-.28-.01-.63.05-1.26.07-1.89.01-.09-.01-.19-.01-.28-.01-.63.05-1.26.07-1.89.01-.14-.01-.28-.01-.43-.01-1.98,0-3.97,0-5.96-.01-.02.03-.02.06-.02.09-.24.2-.09.46-.08.68.04.73.11,1.46.16,2.19-.06.74.33.85.99.83,1.28-.06,2.57-.03,3.86-.03,2.58,0,5.16.01,7.74-.01.46,0,.58.13.52.59-.1.67-.14,1.34-.2,2.02-.24,2.76-.48,5.53-.72,8.3-.07.3-.31.36-.57.4-.51.33-1.07.43-1.67.41-1.29.21-2.51.68-3.77.97-.22.05-.44.09-.66.14-.03.15-.1.26-.28.25-.01-.03-.02-.07-.01-.11-.04,0-.08,0-.12-.01-.17.19-.37.09-.57.05-1.37-.32-2.71-.77-4.1-1.06-.87-.18-1.69-.64-2.62-.66-.31-.01-.41-.29-.43-.6-.12-1.64-.24-3.29-.38-4.93-.03-.34.1-.38.37-.38.91.01,1.81.02,2.71-.01.41,0,.5.18.51.52.04.64.11,1.27.15,1.9.02.25.03.47.36.55,1.24.31,2.48.65,3.72.98.12-.02.24-.04.36-.06.06-.02.12-.05.18-.07.28-.1.56-.2.84-.3.61-.06,1.18-.26,1.75-.44.7.01.9-.38.94-1.02.06-1.1.17-2.2.29-3.3.04-.41-.09-.55-.51-.54-1.24.01-2.48-.01-3.72-.02-2.55.01-5.11,0-7.66.03-.48.01-.57-.25-.6-.61-.24-2.86-.47-5.71-.72-8.57-.02-.29-.07-.58-.09-.87-.08-.84-.07-.84.8-.8,4.5,0,9-.02,13.5-.03,1.2,0,2.4.01,3.6.01,0,.04,0,.09-.03.13.09.68-.1,1.35-.15,2.02Z" style="fill: #eee; stroke-width: 0px;"/>
</svg>