<?xml version="1.0" encoding="UTF-8"?>
<svg id="Capa_1" data-name="Capa 1" xmlns="http://www.w3.org/2000/svg" viewBox="0 0 25.27 34.02">
  <path d="M16.17,0c.86,1.1,1.03,2.31.68,3.6-.36,1.34-1.17,2.41-2.09,3.4-.87.94-1.91,1.67-2.86,2.52-.5.45-.95.95-1.32,1.52-.78,1.18-.87,2.42-.27,3.7.34.72.8,1.37,1.25,2.02.37.54.75,1.07.97,1.73-.62-.6-1.25-1.19-1.86-1.8-.79-.8-1.52-1.65-2.06-2.64-.72-1.33-.63-2.57.35-3.75.7-.85,1.53-1.56,2.38-2.24,1.01-.81,2.06-1.59,2.99-2.5,1.57-1.54,2.35-3.33,1.85-5.56Z" style="fill: #eee; stroke-width: 0px;"/>
  <path d="M23.28,29.24c.5.13.65.49.34.87-.26.32-.63.5-1,.67-1.56.69-3.22,1-4.9,1.24-5.38.75-10.74.55-16.09-.27-.28-.04-.56-.11-.83-.2-.33-.12-.74-.2-.81-.62-.07-.44.31-.65.62-.86.47-.33,1-.54,1.54-.72.82-.28,1.67-.48,2.54-.47.22,0,.44,0,.68.16-.85.1-1.67.23-2.42.58-.3.14-.75.24-.71.64.03.37.48.39.79.49,1.34.41,2.73.54,4.11.63,3.54.23,7.09.15,10.62-.18,1.31-.12,2.61-.3,3.89-.62.41-.1.8-.23,1.17-.44.36-.2.57-.48.45-.92h0Z" style="fill: #eee; stroke-width: 0px;"/>
  <path d="M20.25,6.93c-.99.64-2.01,1.24-2.97,1.92-.73.52-1.45,1.07-2.02,1.77-.75.91-.82,1.7-.25,2.73.29.53.66,1,1.01,1.48.86,1.19.82,2.2-.11,3.35-.36.44-.8.81-1.26,1.14-.11.08-.21.17-.39.1.08-.12.16-.23.23-.35.63-.97.59-1.91-.15-2.81-.36-.44-.72-.88-.99-1.39-.92-1.68-.74-3.25.57-4.66,1.11-1.19,2.51-1.92,3.98-2.53.76-.32,1.53-.59,2.35-.75Z" style="fill: #eee; stroke-width: 0px;"/>
  <path d="M18,27.9c-.85.41-1.7.64-2.57.83-2.31.49-4.63.54-6.94-.04-.55-.14-1.09-.32-1.55-.68-.55-.42-.54-.83.03-1.21.2-.13.42-.23.64-.33.1-.04.24-.06.22.11-.05.44.3.48.57.54.95.22,1.93.27,2.9.3,1.53.06,3.05-.13,4.55-.38.15-.02.29-.08.44,0,.55.28,1.11.56,1.72.86Z" style="fill: #eee; stroke-width: 0px;"/>
  <path d="M7.22,22.58c-.41.74-.29,1.03.5,1.17,1.63.29,3.27.33,4.91.25,1.51-.07,3.01-.26,4.49-.56.12-.02.24-.05.34.04.35.34.79.56,1.29.83-1.1.33-2.15.54-3.21.7-2.17.32-4.34.41-6.52.19-.94-.1-1.87-.25-2.73-.64-.34-.15-.73-.33-.74-.76,0-.4.36-.59.67-.78.3-.18.62-.33,1.01-.43Z" style="fill: #eee; stroke-width: 0px;"/>
  <path d="M8.7,18.66c-.79.23-1.54.4-2.26.69-.3.12-.6.27-.89.42-.14.07-.26.17-.25.34.01.18.17.23.31.28.6.21,1.23.28,1.85.31,3.99.19,7.95-.09,11.88-.78.07-.01.14,0,.26-.02-.81.67-1.74.9-2.7,1.05-3.97.63-7.94.77-11.93.28-.64-.08-1.28-.19-1.85-.5-.39-.21-.42-.49-.04-.71,1.69-.95,3.48-1.58,5.46-1.45.04,0,.07.04.15.08Z" style="fill: #eee; stroke-width: 0px;"/>
  <path d="M25.27,30.83c-.15.71-.58,1.1-1.08,1.41-1.15.69-2.43.99-3.73,1.21-4.1.68-8.22.7-12.34.35-.97-.08-1.93-.23-2.86-.52-.18-.06-.36-.13-.53-.22,3.75.48,7.51.49,11.27.2,2.45-.19,4.87-.52,7.21-1.32.73-.25,1.42-.55,2.07-1.12Z" style="fill: #eee; stroke-width: 0px;"/>
  <path d="M19.82,25c1.23-.72,2.41-1.44,3.3-2.54.33-.41.59-.87.69-1.39.26-1.34-.71-2.43-2.13-2.39-.28,0-.56.07-.89.11.4-.36.87-.48,1.35-.55,1.63-.24,3.2,1.08,3.12,2.61-.04.69-.37,1.25-.84,1.74-1.06,1.1-2.41,1.68-3.82,2.17-.26.09-.52.16-.78.25Z" style="fill: #eee; stroke-width: 0px;"/>
</svg>