<?xml version="1.0" encoding="UTF-8"?>
<svg id="Capa_1" data-name="Capa 1" xmlns="http://www.w3.org/2000/svg" viewBox="0 0 25.55 33.58">
  <defs>
    <style>
      .cls-1 {
        fill: #eee;
        stroke-width: 0px;
      }
    </style>
  </defs>
  <path class="cls-1" d="M11,31.03c-2.01.02-4.61-.13-7.16-.74-.93-.22-1.85-.5-2.67-1.01-.35-.22-.68-.47-.91-.82-.39-.6-.34-1.16.18-1.66.58-.57,1.33-.82,2.11-.96.64-.11,1.29-.11,1.95-.03.44.05.74.35,1.1.53.06.03.11.1.07.16-.05.08-.15.05-.22.04-.68-.13-1.32.04-1.92.35-.65.34-.67.84-.05,1.25.77.51,1.66.71,2.55.85,4.2.69,8.39.7,12.58-.13.74-.15,1.47-.37,2.15-.7.36-.18.7-.38.98-.68.33-.35.51-.75.36-1.24-.07-.22.02-.2.16-.15.96.32,1.27,1.3.69,2.13-.38.54-.92.87-1.5,1.15-1.13.55-2.34.85-3.57,1.08-2.07.39-4.16.56-6.87.58Z"/>
  <path class="cls-1" d="M14.97,0c.22.03.24.18.29.29.74,1.47.72,2.94-.03,4.4-.48.93-1.14,1.73-1.84,2.5-.81.9-1.7,1.72-2.45,2.68-.3.38-.56.77-.74,1.23-.22.56-.22,1.11,0,1.67.56,1.38,1.18,2.73,1.96,4.01.07.11.17.21.12.4-1.61-1.24-3.13-2.56-4.13-4.35-.97-1.72-.84-3.01.43-4.51.97-1.15,2.18-2.03,3.31-3,.87-.75,1.73-1.5,2.4-2.44.61-.86.92-1.79.68-2.87Z"/>
  <path class="cls-1" d="M8.67,16.68c-.56.19-1.12.38-1.69.58-.29.1-.56.24-.81.42-.12.09-.25.19-.23.35.02.17.2.21.34.23.39.07.78.15,1.18.18,2.55.18,5.11.08,7.65-.11,1.22-.09,2.44-.22,3.64-.43.1-.02.2,0,.4,0-.7.58-1.31,1.13-2.02,1.49-.46.23-1.03.24-1.55.32-3.1.47-6.22.66-9.35.41-1.02-.08-2.04-.21-2.99-.62-.44-.19-.91-.4-.94-.97-.03-.61.44-.87.91-1.09.88-.41,1.83-.55,2.78-.65.89-.09,1.78-.13,2.67-.18,0,.02,0,.04,0,.07Z"/>
  <path class="cls-1" d="M13.45,17.99c.32-.35.59-.65.8-1,.46-.77.52-1.55.07-2.34-.23-.4-.47-.8-.75-1.18-1.82-2.45-.57-4.87,1.09-6.07,1.32-.94,2.81-1.42,4.38-1.72.18-.04.37-.07.55-.08.13-.01.26,0,.43,0-.07.18-.22.22-.33.29-1.39.96-2.77,1.93-3.92,3.19-.72.79-.84,1.62-.36,2.56.27.53.57,1.05.82,1.59.73,1.56.34,2.99-1.08,3.98-.5.35-1.05.61-1.72.77Z"/>
  <path class="cls-1" d="M18.09,22.54c-1.37.56-2.7.88-4.07,1.07-2.34.32-4.67.32-6.98-.2-.62-.14-1.24-.33-1.77-.68-.59-.39-.64-.85-.14-1.35.57-.57,1.28-.83,2.05-.94.08.11,0,.14-.04.18-.3.4-.25.66.21.89.64.33,1.34.41,2.05.46,2.21.17,4.38,0,6.52-.61.13-.04.25-.06.38.02.58.37,1.16.74,1.81,1.16Z"/>
  <path class="cls-1" d="M17.57,25.72c-.86.52-1.72.81-2.62,1-2.39.53-4.79.65-7.2.13-.44-.1-.87-.25-1.25-.5-.63-.41-.71-.97-.21-1.55.42-.49,1.13-.79,1.89-.79-.19.56-.1.75.47.92.75.23,1.52.25,2.29.22,1.48-.06,2.94-.23,4.34-.75.14-.05.25-.05.37.04.62.42,1.24.82,1.92,1.28Z"/>
  <path class="cls-1" d="M4.68,31.76c.82.15,1.53.29,2.25.4,4.49.7,8.96.76,13.38-.44,1.91-.52,3.71-1.3,5.25-2.71-.01.63-.25,1.1-.6,1.52-.75.9-1.75,1.41-2.82,1.82-2.25.85-4.6,1.17-7,1.22-3.41.08-6.73-.39-9.95-1.54-.13-.04-.25-.09-.37-.14-.02,0-.03-.03-.14-.13Z"/>
  <path class="cls-1" d="M23.39,21.81c-1.12,1.26-2.57,1.87-4.21,2.09.19-.27.48-.43.73-.65.73-.65,1.4-1.34,1.91-2.18.19-.32.35-.66.46-1.01.46-1.54-.51-2.76-2.12-2.67-.11.01-.23.02-.35,0,.91-.64,1.88-.98,2.98-.59.9.33,1.36,1.05,1.47,1.97.15,1.13-.1,2.18-.87,3.04Z"/>
</svg>