<?xml version="1.0" encoding="UTF-8"?>
<svg id="Capa_1" data-name="Capa 1" xmlns="http://www.w3.org/2000/svg" viewBox="0 0 26.51 26.52">
  <defs>
    <style>
      .cls-1 {
        fill: #eee;
        stroke-width: 0px;
      }
    </style>
  </defs>
  <path class="cls-1" d="M26.48,25.87c0-8.25.01-16.51,0-24.77C26.48-.18,26.61,0,25.36,0,17.29,0,9.23,0,1.17,0-.17,0,.02-.17.02,1.15c-.01,8.19,0,16.38-.02,24.56,0,.63.21.76.79.75,5.9-.01,11.8-.01,17.71,0,2.62,0,5.23.02,7.85.05.05-.02.11-.04.17-.06-.01-.19-.02-.39-.02-.58ZM12.1,11.97h2.06v.06h-2.06v-.06ZM14.4,21.59c-.18.45-.18.98-.51,1.38,0,.11-.04.18-.14.19-.02.04-.07.08-.11.13-.1.08-.17.17-.26.26h0s-.08.08-.13.13l-.64.39c-.41.1-.8.19-1.19.27-.94.2-1.82-.13-2.73-.25-.66-.41-1.13-.97-1.56-1.59-.08-.04-.12-.08-.1-.18-.21-.02-.18-.11-.05-.2h0c.08-.46.43-.51.79-.52.05-.05.1-.08.14-.13.25-.29.63-.37.94-.56.29-.18.33.36.52.56.24.01.33.16.35.38.12,0,.21.02.25.14h.01c.52-.01,1.04.01,1.55-.16.41-.35.42-.82.42-1.3,0-2.61.01-5.22-.01-7.82,0-.44.08-.66.56-.57.64.1,1.32-.19,1.96.14.17.17.12.37.12.56,0,2.72,0,5.43-.01,8.14,0,.2.1.45-.16.58ZM23.84,23.03c0,.12-.01.24-.19.18v.02c.05.19-.1.19-.21.2-.04.04-.07.06-.11.1-.06.05-.12.1-.18.16h-.04s-.04.01-.04.01c-.06.04-.1.07-.16.11-.01.38-.31.25-.51.27-1.54.49-3.05.44-4.55-.14h-.01c-.32.06-.54-.08-.64-.38,0-.01-.01-.01-.01-.01-.04-.02-.08-.07-.13-.11-.2,0-.33-.08-.39-.27-.08-.1-.17-.19-.24-.29-.94-1.11-.77-1.09.41-1.72.93-.5.95-.46,1.72.3.08.1.18.19.26.29.04.11.11.13.2.13.87.47,1.71.47,2.24,0,.08-.05.17-.11.25-.16.66-.32.5-.8.29-1.31h-.01c-.08-.02-.12-.07-.1-.16l-.02.02v-.02c-.07,0-.12-.05-.11-.14-.12-.14-.26-.25-.44-.31-.74-.29-1.47-.57-2.16-.95-.2,0-.44.07-.45-.26-.12.01-.21-.01-.25-.14-.12.01-.25.01-.21-.18h-.01c-.1.04-.14-.01-.16-.08-.08,0-.13-.05-.16-.13l-.13-.13s-.08-.08-.13-.14c-.04-.02-.07-.06-.11-.1-.08-.02-.13-.07-.14-.17-.08-.01-.11-.06-.08-.14-.05-.07-.11-.14-.17-.21h-.01v-.02h.01c-.02-.1-.04-.19-.14-.25h0c-.32-.21-.48-.5-.26-.89-.12-.94.1-1.81.54-2.65.18-.32.44-.56.79-.69.04-.33.25-.33.5-.31h0c1.43-.48,2.81-.47,4.16.26h0c.17-.02.26.04.27.21.05.05.08.1.13.14.97,1.13,1.06.95-.25,1.81-.06.13-.17.17-.3.14-.17.42-.39.62-.75.16-.18,0-.26-.11-.26-.29,0-.04-.01-.07-.05-.11-.18,0-.36-.01-.35-.26-.49-.01-.97-.01-1.45-.01h-.01c-.63.48-.69.99-.19,1.63l.02.04c.11-.04.14,0,.13.1.48.08.93.19,1.22.62.5-.05.88.12,1.17.52.39-.06.64.14.81.47.35.3.81.43,1.06.83.31.06.36.27.36.52h0c.5,1.17.51,2.34.01,3.49h0c.01.21.01.39-.26.41Z"/>
  <polygon class="cls-1" points="24.09 19.14 24.09 19.15 24.07 19.14 24.09 19.14"/>
  <path class="cls-1" d="M20.7,16.8c-.45-.12-.88-.3-1.23-.63.48.08.93.19,1.22.62,0,0,.01,0,.01.01Z"/>
  <path class="cls-1" d="M18.36,12.34h0c-.17.11-.33.2-.5.31.04-.33.25-.33.5-.31Z"/>
  <polygon class="cls-1" points="24.09 19.14 24.09 19.15 24.07 19.14 24.09 19.14"/>
  <path class="cls-1" d="M21.63,15.06h0c-.18.01-.26-.1-.26-.27.13.05.24.13.26.27Z"/>
  <path class="cls-1" d="M22.8,12.82c-.1-.07-.18-.14-.27-.23.17-.01.26.05.27.23Z"/>
  <path class="cls-1" d="M16.94,17.14h0s-.01.01-.01.01v-.02h.01Z"/>
  <path class="cls-1" d="M16.94,17.14h0s-.01.01-.01.01v-.02h.01Z"/>
  <path class="cls-1" d="M22.68,14.77c-.06.13-.17.17-.3.14h.01c.07-.11.17-.17.29-.14Z"/>
  <path class="cls-1" d="M13.89,22.98c0,.11-.04.18-.14.19.05-.06.1-.13.14-.19Z"/>
  <path class="cls-1" d="M23.43,23.44c.07-.07.13-.13.2-.2.06.19-.08.19-.2.2Z"/>
  <path class="cls-1" d="M23.84,23.03c0,.12-.01.24-.19.18.07-.06.12-.11.18-.18h.01Z"/>
  <path class="cls-1" d="M24.09,19.14h-.01c-.16-.16-.3-.3-.35-.52.31.06.36.27.36.52Z"/>
  <path class="cls-1" d="M23.84,23.03h0c.05-.16.12-.3.25-.39h.01c.01.2.01.38-.26.39Z"/>
  <path class="cls-1" d="M9.72,21.87c-.18-.07-.27-.21-.35-.38.24.01.33.16.35.38Z"/>
  <path class="cls-1" d="M17.22,17.53s-.02,0-.02-.01c-.08-.01-.11-.06-.08-.14.04.05.07.11.11.16Z"/>
  <path class="cls-1" d="M19.47,16.17h0s-.08-.06-.13-.1c.11-.04.14,0,.13.1Z"/>
  <path class="cls-1" d="M20.97,14.41c-.49-.01-.97-.01-1.45-.01h0c.49-.33.98-.3,1.45.01Z"/>
  <path class="cls-1" d="M21.32,14.68c-.18,0-.36-.01-.35-.26h0c.17.02.29.1.35.26Z"/>
  <path class="cls-1" d="M21.86,17.31c-.41-.11-.8-.29-1.16-.51,0-.01-.01-.01-.01-.01.5-.05.88.12,1.17.52Z"/>
  <path class="cls-1" d="M18.24,18.44c-.12.01-.25.01-.21-.18.07.06.13.11.2.17,0,0,.01,0,.01.01Z"/>
  <path class="cls-1" d="M7.12,22.52c-.08-.04-.12-.08-.1-.18.04.06.07.12.1.18Z"/>
  <path class="cls-1" d="M14.56,21.01c0,.2.1.45-.16.58.01-3.1.04-6.19.05-9.29.17.17.12.37.12.56,0,2.72,0,5.43-.01,8.14Z"/>
  <path class="cls-1" d="M7.76,21.62c-.26.17-.52.35-.79.52h0c.08-.46.43-.51.79-.52Z"/>
  <path class="cls-1" d="M18.95,18.85c-.2,0-.44.07-.45-.26.18.04.35.11.45.26Z"/>
  <rect class="cls-1" x="12.1" y="11.97" width="2.06" height=".06"/>
  <path class="cls-1" d="M17.34,17.68c-.08-.02-.13-.07-.14-.17.05.06.1.11.14.17Z"/>
  <path class="cls-1" d="M18.02,18.25c-.1.05-.14,0-.16-.07h.01s.08.05.14.07Z"/>
  <path class="cls-1" d="M17.84,23.93h0c-.32.07-.54-.07-.64-.37.21.12.44.25.64.37Z"/>
  <path class="cls-1" d="M7.03,22.34h-.01c-.21-.02-.18-.11-.05-.2.02.07.04.13.06.2Z"/>
  <path class="cls-1" d="M16.8,16.88h0c-.32-.21-.48-.5-.26-.89.1.31.18.6.26.89Z"/>
  <path class="cls-1" d="M18.49,18.59c-.12.01-.21-.01-.25-.14.1.05.17.1.25.14Z"/>
  <path class="cls-1" d="M11.53,21.85c-.48.45-1,.43-1.55.17-.12-.01-.2-.05-.26-.16.12,0,.21.02.25.14h.01c.52-.01,1.04.01,1.55-.16Z"/>
  <path class="cls-1" d="M22.67,17.78c-.26-.16-.54-.31-.81-.47.39-.06.64.14.81.47Z"/>
  <path class="cls-1" d="M22.39,14.9h-.01c-.17.43-.39.63-.75.17h0c.32.31.5-.17.76-.17Z"/>
  <path class="cls-1" d="M22.92,23.81c-.01.38-.31.25-.51.27.16-.11.29-.27.51-.27Z"/>
  <path class="cls-1" d="M17.05,23.44c-.2,0-.33-.08-.39-.27.19,0,.27.15.39.27Z"/>
  <path class="cls-1" d="M23.07,23.7c-.06.04-.1.07-.16.11.02-.07.07-.12.16-.11Z"/>
  <path class="cls-1" d="M21.68,20.24h0s-.01.01-.01.01c-.08,0-.13-.05-.12-.14.05.05.07.08.13.13Z"/>
  <path class="cls-1" d="M17.86,18.17h0c-.08.01-.13-.04-.16-.12.06.04.1.07.16.12Z"/>
  <path class="cls-1" d="M21.77,20.4c-.08-.01-.12-.06-.1-.14.04.05.07.11.1.14Z"/>
</svg>