<?xml version="1.0" encoding="UTF-8"?>
<svg id="Capa_1" data-name="Capa 1" xmlns="http://www.w3.org/2000/svg" viewBox="0 0 21.22 33.93">
  <path d="M11.61,0c.18.12.39.1.59.13,2.4.37,4.44,1.44,6.12,3.2,1.38,1.45,2.29,3.16,2.67,5.11.5,2.52.21,4.95-1.01,7.25-.59,1.12-1.26,2.2-1.78,3.35-.59,1.33-.94,2.72-1.1,4.17-.09.83-.46,1.17-1.29,1.17-3.47,0-6.93,0-10.4,0-.84,0-1.2-.33-1.29-1.17-.2-1.91-.76-3.7-1.7-5.38-.56-1.01-1.17-2-1.61-3.07C0,12.81-.21,10.77.21,8.7,1.07,4.5,3.59,1.76,7.65.43c.48-.16.98-.26,1.48-.32.12-.01.27.01.35-.11h2.12Z" style="fill: #eee; stroke-width: 0px;"/>
  <path d="M10.65,25.44c1.73,0,3.47,0,5.2,0,.81,0,1.33.72,1.05,1.44-.16.41-.54.67-1,.68-.51,0-1.02,0-1.52,0-2.95,0-5.9,0-8.84,0-.15,0-.31,0-.46-.03-.52-.12-.86-.61-.81-1.13.06-.55.5-.95,1.09-.95,1.67,0,3.33,0,5,0,.1,0,.2,0,.3,0Z" style="fill: #eee; stroke-width: 0px;"/>
  <path d="M10.59,30.74c-1.73,0-3.47,0-5.2,0-.81,0-1.33-.71-1.06-1.43.16-.43.55-.68,1.07-.69,1.73,0,3.47,0,5.2,0,1.76,0,3.51,0,5.27,0,.81,0,1.32.73,1.04,1.45-.17.42-.55.67-1.08.67-1.74,0-3.49,0-5.23,0Z" style="fill: #eee; stroke-width: 0px;"/>
  <path d="M10.63,31.8c1.3,0,2.61.01,3.91,0,.3,0,.33.09.28.35-.18,1-.98,1.74-2.02,1.76-1.46.03-2.92.03-4.37,0-1.06-.02-1.88-.8-2.04-1.83-.04-.25.03-.29.26-.29,1.32.01,2.65,0,3.97,0Z" style="fill: #eee; stroke-width: 0px;"/>
</svg>
