<?xml version="1.0" encoding="UTF-8"?>
<svg id="Capa_1" data-name="Capa 1" xmlns="http://www.w3.org/2000/svg" viewBox="0 0 21.43 18.07">
  <defs>
    <style>
      .cls-1 {
        fill: #e6e6e6;
        stroke-width: 0px;
      }
    </style>
  </defs>
  <path class="cls-1" d="M0,8.35c0-2.6,0-5.21,0-7.81C0,.05.12-.05.6.04c2.1.41,4.2.82,6.29,1.24.32.06.62-.02.92-.08C9.87.82,11.93.41,13.99.04c.61-.11,1.22.06,1.83.12,1.7.15,3.4.33,5.11.49.43.04.51.12.51.53,0,5.24,0,10.48,0,15.71,0,.45-.11.54-.57.49-2.16-.21-4.32-.42-6.49-.62-.51-.05-1,.14-1.49.23-1.84.34-3.67.69-5.51,1.05-.36.07-.68-.06-1.02-.12-1.96-.38-3.92-.77-5.89-1.15C.05,16.69,0,16.63,0,16.19c0-2.61,0-5.23,0-7.84ZM13.86,9.91c0-1.85,0-3.7,0-5.55,0-.21.09-.48-.05-.62-.13-.14-.38.01-.58.03-.2.02-.34-.06-.39-.25-.05-.22.06-.36.27-.41.17-.04.34-.07.51-.08.18,0,.24-.07.24-.25,0-.59-.01-1.18,0-1.77,0-.21-.07-.26-.27-.22-1.94.37-3.88.75-5.83,1.11-.2.04-.28.11-.28.33,0,4.05,0,8.11,0,12.16,0,.14,0,.25.17.34.21.11.25.41.06.51-.26.13-.22.33-.22.54,0,.41.02.82,0,1.23-.01.27.06.32.32.27,1.9-.37,3.8-.73,5.7-1.08.28-.05.35-.17.35-.44-.01-1.95,0-3.89,0-5.84ZM.67,8.44c0,2.45,0,4.9,0,7.36,0,.17-.04.33.22.38,1.9.36,3.8.74,5.69,1.12.19.04.25-.02.24-.21,0-.45-.01-.9,0-1.35,0-.25-.02-.41-.33-.4-.21,0-.35-.13-.34-.34.01-.21.15-.35.37-.32.3.04.3-.12.3-.34,0-4.01,0-8.02,0-12.03,0-.27-.08-.37-.34-.41-1.81-.34-3.61-.7-5.41-1.05-.41-.08-.41-.08-.41.35,0,2.42,0,4.84,0,7.26ZM20.76,8.99c0-2.44,0-4.88,0-7.33,0-.29-.08-.37-.37-.4-1.86-.17-3.73-.35-5.59-.55-.24-.02-.29.04-.29.27,0,4.94,0,9.88,0,14.81,0,.21.05.3.28.32,1.86.17,3.73.35,5.59.54.31.03.38-.05.38-.35-.01-2.44,0-4.88,0-7.33Z"/>
  <path class="cls-1" d="M10.29,8.08c.01-.18.07-.3.25-.35.18-.04.33.02.39.19.12.33.24.66.34,1,.05.18-.03.31-.2.38-.16.07-.31.02-.39-.12-.19-.35-.3-.73-.38-1.1Z"/>
  <path class="cls-1" d="M11.75,10.95c0,.29.07.6-.31.66-.23.04-.34-.15-.36-.59-.01-.21-.03-.43-.05-.64-.03-.22.04-.39.27-.43.25-.04.37.12.4.36.02.13.03.25.05.38,0,.1.01.19.02.26Z"/>
  <path class="cls-1" d="M8.86,15.11c-.22,0-.33-.09-.38-.25-.04-.15,0-.3.14-.36.33-.15.66-.29.99-.46.15-.08.29,0,.38.14.09.13.08.29-.03.38-.33.28-.74.42-1.11.54Z"/>
  <path class="cls-1" d="M11.51,12.63c-.12.39-.3.78-.62,1.1-.12.12-.28.1-.41-.01-.13-.11-.16-.27-.08-.41.18-.29.34-.59.49-.9.07-.16.23-.19.39-.14.15.04.22.16.22.36Z"/>
  <path class="cls-1" d="M11.9,3.6c.15,0,.27.07.32.22.06.15.01.29-.11.37-.27.19-.53.39-.77.63-.11.11-.25.12-.38.03-.13-.08-.19-.2-.15-.36.06-.24.85-.88,1.09-.89Z"/>
  <path class="cls-1" d="M10.09,6.31c.03-.21.06-.43.11-.65.05-.2.19-.28.39-.24.19.04.28.17.25.35-.05.33-.07.66-.07.99,0,.18-.13.29-.32.29-.19,0-.31-.09-.33-.28-.02-.15-.02-.3-.03-.47Z"/>
  <path class="cls-1" d="M5.12,15.04c-.37-.13-.76-.3-1.07-.6-.12-.12-.1-.28,0-.41.1-.13.25-.18.4-.09.29.18.59.35.9.48.15.07.2.22.15.38-.05.17-.17.24-.38.24Z"/>
  <path class="cls-1" d="M4.9,6.01c0,.14.01.28,0,.42-.02.2-.15.3-.35.3-.19,0-.3-.12-.31-.3-.03-.34-.04-.68-.04-1.02,0-.19.11-.31.29-.33.2-.03.34.07.37.27.04.22.05.45.07.67,0,0-.01,0-.02,0Z"/>
  <path class="cls-1" d="M3.91,9.89c-.09.41-.16.76-.26,1.11-.04.16-.19.24-.35.21-.18-.03-.29-.15-.28-.34.03-.39.12-.76.27-1.12.06-.15.21-.22.37-.17.18.05.26.18.26.31Z"/>
  <path class="cls-1" d="M4.74,7.76c-.09.37-.19.76-.4,1.11-.09.15-.25.17-.4.1-.16-.07-.23-.21-.18-.37.11-.35.22-.69.36-1.03.06-.15.2-.21.37-.17.17.04.24.16.25.35Z"/>
  <path class="cls-1" d="M3.32,3.17c.38,0,1.05.57,1.11.9.03.15-.02.28-.16.36-.15.08-.31.08-.41-.06-.19-.25-.4-.46-.7-.59-.15-.07-.18-.23-.12-.39.05-.14.17-.22.27-.22Z"/>
  <path class="cls-1" d="M2.95,12.3c-.01-.22.07-.39.3-.41.24-.02.35.13.36.35.02.27.08.53.18.78.07.2.05.39-.18.48-.23.09-.37-.03-.45-.23-.13-.31-.2-.63-.21-.96Z"/>
  <path class="cls-1" d="M19.43,10.65c0,.15-.09.24-.19.32-.31.27-.61.54-.93.8-.14.11-.15.19-.03.33.28.3.53.62.8.93.15.17.23.36.03.54-.21.19-.39.09-.55-.1-.26-.3-.53-.6-.77-.91-.14-.17-.23-.16-.38-.02-.28.26-.59.51-.88.76-.18.16-.37.25-.56.04-.19-.21-.08-.39.11-.55.3-.26.6-.52.91-.77.15-.12.18-.19.04-.35-.27-.29-.52-.6-.78-.9-.16-.18-.26-.37-.04-.56.21-.18.39-.08.55.11.26.3.53.6.77.91.13.16.22.15.36.02.31-.28.63-.55.95-.82.13-.11.27-.14.42-.06.11.06.17.16.17.29Z"/>
  <path class="cls-1" d="M18.4,9.23c-.07.29-.15.66-.26,1.02-.05.17-.21.24-.39.19-.17-.05-.27-.19-.24-.37.07-.35.15-.69.24-1.03.05-.18.19-.26.37-.23.18.03.27.16.28.42Z"/>
  <path class="cls-1" d="M18.31,5.46c-.01.18-.07.3-.22.35-.16.05-.31.02-.39-.13-.15-.31-.32-.6-.52-.88-.1-.14-.06-.29.07-.4.11-.11.27-.14.38-.04.35.3.54.71.69,1.1Z"/>
  <path class="cls-1" d="M16.39,4.14c-.36-.13-.74-.25-1.1-.41-.14-.06-.16-.22-.12-.37.04-.15.16-.24.31-.22.41.05.79.19,1.14.41.13.08.16.22.1.37-.06.15-.17.22-.34.21Z"/>
  <path class="cls-1" d="M17.93,7.32c0-.17,0-.34,0-.51,0-.2.12-.33.31-.34.2-.01.34.1.34.3.01.35.01.7,0,1.06-.01.19-.14.32-.34.31-.22-.01-.32-.15-.32-.36,0-.15.01-.3.02-.45,0,0,0,0,0,0Z"/>
</svg>