<?xml version="1.0" encoding="UTF-8"?>
<svg id="Capa_1" data-name="Capa 1" xmlns="http://www.w3.org/2000/svg" viewBox="0 0 23.57 32.43">
  <path d="M5.17,26.5c0-1.42-.02-2.83.01-4.25,0-.46-.13-.75-.5-1.05C.83,18.09-.76,14.05.34,9.23,1.49,4.2,4.82,1.18,9.86.2c6.21-1.2,12.49,3.24,13.51,9.51.76,4.66-.75,8.5-4.42,11.47-.39.31-.55.61-.54,1.1.02,2.7,0,5.4.01,8.1,0,.75,0,1.49-.8,1.89-.83.41-1.44-.03-2.05-.52-1.08-.87-2.2-1.69-3.26-2.58-.4-.33-.65-.3-1.04.02-1.18.96-2.39,1.87-3.58,2.82-.52.41-1.05.55-1.67.29-.64-.28-.85-.81-.85-1.46,0-1.44,0-2.88,0-4.33ZM11.77,2.97c-4.88.01-8.87,4.04-8.85,8.94.03,4.82,4.09,8.84,8.91,8.81,4.84-.03,8.85-4.05,8.85-8.88,0-4.89-4.01-8.89-8.91-8.88Z" style="fill: #e7e7e7; stroke-width: 0px;"/>
  <path d="M7.55,10.35c.27-.01.59.21.87.49.5.5,1.03.97,1.49,1.51.34.4.54.3.85-.02,1.36-1.39,2.73-2.75,4.11-4.12.78-.78,1.62-.84,2.26-.18.61.64.55,1.47-.2,2.22-1.8,1.8-3.59,3.6-5.4,5.39-.83.83-1.54.84-2.38.04-.93-.89-1.86-1.78-2.76-2.69-.5-.51-.66-1.12-.32-1.8.27-.54.7-.83,1.47-.83Z" style="fill: #e7e7e7; stroke-width: 0px;"/>
</svg>