<?xml version="1.0" encoding="UTF-8"?>
<svg id="Capa_1" data-name="Capa 1" xmlns="http://www.w3.org/2000/svg" viewBox="0 0 40 40">
  <path d="M20.84,0c.42.09.85.17,1.26.28,3.56.91,5.99,4.03,5.75,7.48-.15,2.09-.41,4.17-.63,6.26-.18,1.71-.37,3.42-.54,5.13-.06.59-.17,1.16-.74,1.64.22.02.38.04.53.05,2.4.1,4.8.22,7.2.3,1.7.06,2.98-1.05,3.08-2.6.09-1.45-1.15-2.76-2.74-2.92-.52-.05-1.05-.01-1.56-.2-.97-.35-1.68-1.25-1.69-2.21,0-.38.19-.62.55-.67.34-.04.61.18.69.54.23,1.05.58,1.34,1.72,1.32,1.48-.03,2.86.23,4.07,1.09,1.85,1.32,2.64,3.58,1.98,5.72-.64,2.06-2.64,3.61-4.93,3.73-2.48.13-4.97.02-7.46.05-.15,0-.29,0-.55,0,.98.75,1.99,1.15,3.13,1.27.85.09,1.72.04,2.54.35,2.13.81,3.3,2.29,3.49,4.44.04.47,0,.94.02,1.41.01.78.47,1.26,1.29,1.37.03,0,.06,0,.08,0,.41.06.66.33.61.65-.05.34-.35.54-.76.51-1.37-.1-2.39-1.06-2.47-2.36-.05-.83-.33-1.55-1.05-2.08-.44-.32-.93-.52-1.48-.54-1-.05-2,.02-3-.06-1.56-.13-3-.59-4.31-1.4-.07-.04-.14-.08-.19-.11-.12.07-.08.16-.08.22,0,2.07,0,4.14,0,6.21,0,1.41,1.04,2.4,2.44,2.37,1.33-.03,2.31-1.02,2.32-2.38,0-.68.05-1.35.43-1.96.61-.97,1.51-1.5,2.71-1.57.46-.03.75.18.78.53.03.33-.25.6-.69.64-.85.06-1.46.45-1.81,1.17-.18.35-.17.73-.16,1.11.03,1.06-.14,2.07-.74,2.99-1.15,1.75-3.33,2.58-5.47,2.08-2.09-.49-3.65-2.21-3.7-4.25-.07-2.58-.03-5.16-.04-7.73,0-.17,0-.34-.04-.5-.08-.32-.31-.49-.65-.49-.36,0-.61.17-.68.51-.04.16-.04.34-.04.5-.01,2.6.03,5.21-.04,7.81-.07,2.32-2.24,4.23-4.74,4.31-2.57.08-4.8-1.69-5.11-4.02-.06-.49-.05-.99-.06-1.48-.02-1.14-.74-1.87-1.95-1.99-.47-.05-.75-.31-.71-.65.04-.35.33-.53.79-.51,1.64.07,2.99,1.31,3.1,2.84.04.53-.02,1.07.17,1.58.36.96,1.45,1.61,2.52,1.47,1.15-.15,2.05-.97,2.06-2.02.04-2.25.01-4.5.01-6.78-.43.23-.83.46-1.24.65-1.34.63-2.77.9-4.26.91-.69,0-1.39-.01-2.08.02-1.21.06-2.26.96-2.45,2.09-.09.54-.07,1.09-.37,1.59-.49.8-1.22,1.22-2.18,1.3-.4.03-.71-.19-.75-.52-.04-.33.21-.58.63-.64.93-.13,1.36-.58,1.36-1.47,0-.96-.02-1.92.35-2.85.74-1.83,2.63-3.12,4.72-3.18,1.32-.04,2.56-.3,3.65-1.02.12-.08.24-.17.42-.3-.24-.02-.41-.03-.57-.06-.36-.05-.55-.27-.53-.59.02-.32.22-.53.59-.54.47-.01.94-.02,1.42,0,.2,0,.33-.05.43-.22.31-.51.58-1.03.71-1.65-1.07.04-2.11.08-3.14.13-1.91.08-3.83.18-5.74.24-2.8.09-4.81-2.28-4.15-4.84.01-.05.01-.1.02-.16-.37.28-.73,1.08-.85,1.71-.47,2.45,1.63,4.82,4.46,4.79,1.32-.01,2.64,0,3.96,0,.18,0,.36-.02.53.07.23.12.34.3.33.54-.01.25-.15.42-.39.5-.1.04-.22.06-.33.06-1.58-.02-3.17.07-4.75-.04C2.27,24.74,0,22.42,0,19.7c0-2.71,2.25-5.05,5.09-5.26.5-.04,1-.03,1.5-.04.82-.03,1.31-.45,1.42-1.21.06-.45.33-.7.71-.65.38.04.56.3.54.74-.06,1.17-1.11,2.19-2.38,2.27-.68.04-1.36.04-1.98.36-1.23.63-1.88,1.92-1.56,3.16.33,1.25,1.5,2.11,2.96,2.06,2.47-.08,4.94-.2,7.41-.31.09,0,.19-.02.37-.04-.76-.59-.71-1.39-.79-2.14-.3-2.73-.58-5.46-.87-8.2-.1-.93-.2-1.86-.27-2.8-.23-3.22,2.27-6.49,5.6-7.33C18.19.2,18.64.11,19.09,0c.58,0,1.17,0,1.75,0ZM27.31,38.43c-.56-.01-1.04-.06-1.5-.22-1.58-.57-2.41-1.74-2.41-3.42,0-2.75,0-5.49,0-8.24,0-.12,0-.23.02-.35.05-.32.25-.49.58-.5.34,0,.55.15.61.47.03.13.04.26.03.39-.02.23.06.38.26.53,1.56,1.2,3.35,1.73,5.35,1.74,1.3.01,2.64-.19,3.85.5-.22-.47-.59-.8-.99-1.09-.83-.6-1.81-.72-2.82-.79-3.65-.25-6.34-2.62-6.84-6-.03-.23-.12-.35-.35-.45-.75-.35-1.12-1.07-1.02-1.89.09-.68.65-1.31,1.4-1.49.58-.14,1.19-.15,1.77.02.3.09.35.01.35-.24,0-.25.05-.49.07-.74.24-2.21.49-4.43.71-6.64.1-1.01.29-2.01.22-3.03-.25-3.75-4-6.44-7.93-5.68-3.5.68-5.68,3.67-5.24,7.13.29,2.26.49,4.53.73,6.8.09.82.18,1.64.27,2.49.61-.21,1.2-.22,1.8-.15.82.1,1.51.69,1.67,1.43.16.77-.19,1.57-.91,1.94-.32.16-.39.34-.39.66.01,4.4.01,8.8,0,13.2,0,1.69-.86,2.89-2.46,3.43-.22.07-.45.11-.69.15-.23.04-.47.05-.8.08,1.16.5,2.23.49,3.26.01,1.46-.68,2.12-1.84,2.12-3.35,0-2.41,0-4.82,0-7.23,0-.21.01-.42.04-.62.14-1.09,1.32-1.82,2.44-1.52.94.25,1.45.94,1.45,1.99,0,2.46,0,4.92,0,7.38,0,1.24.46,2.25,1.51,3.02,1.03.75,2.68.91,3.83.3ZM37.8,17.22c.79,2.65-1.17,5.13-3.98,5.09-1.29-.02-2.58-.1-3.87-.16-1.6-.07-3.19-.13-4.79-.2-.3-.01-.35.04-.26.31.16.45.36.87.6,1.28.12.21.28.27.53.27,2.71,0,5.42,0,8.13,0,1.91,0,3.31-.8,4.19-2.4.69-1.27.47-3.19-.55-4.19ZM5.91,29.3c.4-.16.79-.32,1.21-.4.9-.17,1.8-.08,2.7-.09,1.98-.02,3.77-.56,5.3-1.76.09-.07.24-.12.24-.25,0-.74,0-1.49,0-2.34-.81,1.05-1.73,1.79-2.86,2.32-1.11.52-2.29.65-3.51.72-1.35.08-2.37.72-3.08,1.79ZM15.61,20.05c.17-.01.31-.01.44-.03.4-.06.64-.3.63-.65,0-.35-.23-.59-.64-.65-.29-.04-.58-.04-.87.01-.37.07-.55.31-.55.64,0,.33.19.57.55.63.15.03.3.03.43.05ZM24.29,20.05c.18,0,.3,0,.43-.02.42-.05.68-.32.68-.66,0-.34-.25-.59-.65-.64-.3-.04-.61-.05-.91.03-.33.09-.51.31-.5.63,0,.32.18.54.52.62.16.04.33.04.44.05Z" style="fill: #eee; stroke-width: 0px;"/>
</svg>