<?xml version="1.0" encoding="UTF-8"?>
<svg id="Capa_1" data-name="Capa 1" xmlns="http://www.w3.org/2000/svg" viewBox="0 0 28 29.05">
  <path d="M23.33,6.64c-.3,0-.59,0-.88,0-2.26.03-3.3,1.35-2.81,3.56.23,1.02.59,1.99,1.09,2.91.71,1.31,1.29,2.69,2.19,3.89.17.23.29.42-.12.59-.6.25-.86.77-.9,1.4-.14,2.3-.52,4.58-.8,6.86-.32,2.69-2.37,3.3-4.3,3.18-1.12-.07-1.97-1.27-2.11-2.72-.22-2.23-.19-4.47-.16-6.71.02-1.14-.39-1.75-1.48-2.13-.39-.14-.48-.33-.32-.71.27-.62.49-1.26.76-1.88.93-2.18.73-4.38.09-6.57-.34-1.16-1.53-1.72-2.85-1.5-.6.1-1.2.25-1.74.53-.47.23-.59,0-.53-.39.24-1.5.6-2.97,1.49-4.24C11.36.67,13.36.14,15.71.35c3.31.29,6.84,3.17,7.62,6.29Z" style="fill: #eee; stroke-width: 0px;"/>
  <path d="M9.96,1.14c-2.09,2.49-2.66,5.36-2.48,8.46.07,1.2-.04,2.39-.14,3.59-.12,1.4.3,2.64,1.29,3.65.24.24.26.39.02.65-.75.81-1.47,1.66-2.21,2.49-.8.9-1.45.89-2.24-.05-1.05-1.25-1.62-2.76-2.14-4.28C1.12,12.95.43,10.19.07,7.36c-.17-1.34-.04-2.66.46-3.93C1.27,1.49,2.8.58,4.75.43c1.74-.13,3.48.04,5.21.7Z" style="fill: #eee; stroke-width: 0px;"/>
  <path d="M27.97,5.45c-.25,2.19-.83,4.29-1.66,6.33-.48,1.19-.98,2.37-1.68,3.45-.23.47-.46.94-.87,1.32.22-.64.46-1.25.59-1.9.1-1.1-.05-2.18-.14-3.27,0-.09,0-.18-.01-.27-.05-.31-.06-.63,0-.95.01-.18.02-.36.02-.54.26-1.48.41-2.92-.38-4.34-1.08-1.97-2.46-3.61-4.43-4.73-.19-.1-.44-.12-.54-.36.68-.29,1.38-.04,2.04-.13.68-.1,1.33-.08,2,.04,1.36.25,2.55.84,3.64,1.7,1.21.95,1.59,2.17,1.42,3.65Z" style="fill: #eee; stroke-width: 0px;"/>
  <path d="M8.44,9.89q-.14-1.3,1.1-1.79c.59-.23,1.19-.42,1.84-.39.73.03,1.23.37,1.4,1.06.51,2.1.66,4.19-.33,6.22-.28.57-.52,1.16-.68,1.77-.13.5-.39.52-.78.43-1.7-.37-2.93-2.12-2.75-3.92.07-.67.14-1.35.21-2.02.21-.45.21-.91,0-1.36ZM11.43,8.2c-.23.1-.69-.06-.66.41.03.46.43.67.85.7.35.02.74-.15.75-.52.01-.57-.53-.47-.94-.59Z" style="fill: #eee; stroke-width: 0px;"/>
  <path d="M23.43,8.53c.19-.97.17-.97-.78-.83-.2.03-.4.01-.61.01-.55-.16-.94.1-1.27.51-.04.06-.07.11-.11.17-.22.37-.23.76-.17,1.17.28,2.21,1.57,3.98,2.57,6,.41-.81.46-1.56.38-2.32-.17-1.57-.32-3.13-.01-4.71ZM22.37,8.74c-.29.23-.6.28-.93.07-.17-.11-.32-.24-.34-.47.23-.21.5-.3.79-.37.27.06.64-.08.76.27.07.2-.12.37-.28.5Z" style="fill: #eee; stroke-width: 0px;"/>
  <path d="M8.98,20.69c.21-.24.45-.2.67-.24,1.03-.19,1.91-.6,2.5-1.54.23-.37.54-.8,1.08-.38.46.36.47.89.01,1.41-1.02,1.17-2.93,1.51-4.26.75Z" style="fill: #eee; stroke-width: 0px;"/>
  <path d="M27.53,18.55c-.28.39-.61.62-1.02.73h-.05c-.09.13-.22.14-.35.14-.83.34-1.71.4-2.59.34-.23-.02-.61.06-.69-.29-.07-.33-.03-.69.25-.94.27-.23.56-.37.93-.19.28.14.58.23.87.34.18.02.36.04.54.05h.82c.43-.06.86-.12,1.29-.18Z" style="fill: #eee; stroke-width: 0px;"/>
</svg>