<?xml version="1.0" encoding="UTF-8"?>
<svg id="Capa_1" data-name="Capa 1" xmlns="http://www.w3.org/2000/svg" viewBox="0 0 30 29.96">
  <path d="M20.54,22.2c-1.7,0-3.4.01-5.1,0-.45,0-.45.24-.47.56-.02.36.12.46.47.46,2.15-.01,4.29,0,6.44-.01.36,0,.49.11.46.46-.08.91-.04,1.83,0,2.75.05.99-.4,1.71-1.17,2.26-.99.71-2.15.98-3.32,1.14-1.39.2-2.8.16-4.2.1-1.45-.07-2.86-.34-4.13-1.09-.84-.5-1.47-1.16-1.7-2.15-.04-.17-.05-.35-.05-.52,0-2.31-.02-4.61.01-6.92.02-1.77.99-3.07,2.75-3.58,1.02-.3,2.03-.19,3.05-.2,1.94-.03,3.89,0,5.83-.02,1.96-.03,3.22-1.23,3.68-2.88.29-1.02.11-2.07.16-3.1.03-.51,0-1.03,0-1.54,0-.15,0-.32.21-.32.96.03,1.92-.11,2.87.07,1.31.24,2.16,1.1,2.75,2.23.6,1.15.88,2.39.88,3.69,0,1.07.05,2.14-.01,3.2-.11,1.77-.65,3.39-2.11,4.55-.72.57-1.56.89-2.5.88-1.61-.01-3.21,0-4.82,0,0,0,0,0,0-.01ZM17.9,26.34c-.04.75.63,1.34,1.31,1.32.7-.02,1.28-.57,1.29-1.29.01-.72-.57-1.31-1.3-1.31-.77,0-1.29.52-1.29,1.28Z" style="fill: #eee; stroke-width: 0px;"/>
  <path d="M9.55,7.82c1.73,0,3.45,0,5.18,0,.17,0,.4.05.34-.24-.06-.26.24-.66-.28-.74-1.26-.19-2.52-.05-3.79-.08-.97-.02-1.94,0-2.91,0-.27,0-.43-.07-.38-.36.18-1,.05-2.01.07-3.02.01-.61.21-1.11.6-1.58.73-.88,1.76-1.18,2.78-1.39,2.64-.55,5.29-.58,7.92.13,1.05.28,2.01.77,2.69,1.68.36.48.54,1.02.54,1.62,0,2.32-.02,4.64-.02,6.96,0,2.05-1.33,3.33-3.15,3.65-1.22.21-2.45.06-3.67.09-1.43.03-2.86,0-4.29,0-.91,0-1.8.11-2.58.62-1,.65-1.52,1.63-1.7,2.78-.2,1.33-.06,2.66-.08,4,0,.36-.07.49-.46.47-.63-.04-1.27-.02-1.9,0-1.47.03-2.49-.72-3.24-1.9-.77-1.19-1.02-2.55-1.14-3.93-.14-1.58-.12-3.15.26-4.7.36-1.46,1.01-2.73,2.36-3.52.58-.34,1.22-.54,1.92-.54,1.65.01,3.29,0,4.94,0h0ZM12.25,3.64c0-.68-.63-1.32-1.32-1.32-.71,0-1.32.58-1.32,1.31,0,.65.43,1.34,1.29,1.35.73,0,1.33-.6,1.34-1.34Z" style="fill: #eee; stroke-width: 0px;"/>
</svg>