<?xml version="1.0" encoding="UTF-8"?>
<svg id="Capa_1" data-name="Capa 1" xmlns="http://www.w3.org/2000/svg" viewBox="0 0 37.52 27.82">
  <path d="M4.04,27.82H.58c-.19,0-.38,0-.57-.01,0-.1,0-.19,0-.29C0,20.2,0,12.88,0,5.56c0-.21.06-.35.2-.5C1.81,3.46,3.41,1.86,4.99.23,5.25-.05,5.54.05,5.83,0c.25.05.5.05.75,0,.33,0,.65,0,.98,0,.25.05.5.05.75,0,.33,0,.65,0,.98,0,.25.05.5.05.75,0,.33,0,.65,0,.98,0,.25.05.5.05.75,0,.33,0,.65,0,.98,0,.25.05.5.05.75,0,.33,0,.65,0,.98,0,.25.05.5.05.75,0,.33,0,.65,0,.98,0,.25.05.5.05.75,0,.33,0,.65,0,.98,0,.25.05.5.05.75,0,.33,0,.65,0,.98,0,.25.05.5.05.75,0,.33,0,.65,0,.98,0,.25.05.5.05.75,0,.33,0,.65,0,.98,0,.25.05.5.05.75,0,.33,0,.65,0,.98,0,.25.05.5.05.75,0,.33,0,.65,0,.98,0,.25.05.5.05.75,0,.33,0,.65,0,.98,0,.25.05.5.05.75,0,.33,0,.65,0,.98,0,.25.05.5.05.75,0,.33,0,.65,0,.98,0,.25.05.5.05.75,0,.33,0,.65,0,.98,0,.25.05.5.05.75,0,.33,0,.65,0,.98,0,.25.05.5.05.75,0,.33,0,.65,0,.98,0,.17.07.35,0,.52.05,0,7.33,0,14.66,0,21.99,0,.38-.08.66-.36.91-.08.07-.19.13-.23.25-.39.34-.75.71-1.1,1.1-.23.19-.44.4-.64.63-.9.86-1.79,1.73-2.62,2.65-.26.29-.55.2-.84.25-.29,0-.58,0-.87,0H4.04ZM20.57,13.69c0-1.95-.14-3.63-.72-5.25-.61-1.71-1.76-2.84-3.54-3.28-1.45-.36-2.91-.37-4.36-.08-1.63.33-2.87,1.19-3.6,2.73-.53,1.13-.77,2.32-.9,3.54-.11,1.06-.11,2.12-.06,3.18.06,1.31.23,2.61.69,3.85.45,1.22,1.19,2.19,2.41,2.75.79.37,1.63.55,2.49.61.69.05,1.4.1,2.08-.04.31-.07.43.04.57.28.59,1.01,1.21,2,1.8,3,.08.13.15.14.27.07.65-.32,1.31-.64,1.98-.92.28-.12.25-.22.12-.44-.57-.9-1.13-1.82-1.69-2.73-.05-.09-.18-.17,0-.3,1.05-.75,1.65-1.81,1.99-3.04.37-1.37.47-2.77.47-3.94ZM23.87,14.86c0,.61,0,1.21,0,1.82,0,.83.02,1.67.17,2.49.25,1.34.84,1.96,2.17,2.22,1.16.23,2.31.04,3.45-.19.14-.03.13-.11.13-.21-.03-.54-.06-1.07-.08-1.61,0-.21-.06-.31-.3-.29-.63.05-1.26.08-1.9.06-.59-.02-.88-.27-.97-.85-.04-.27-.09-.55-.09-.83-.01-1.91-.01-3.83-.03-5.74,0-.21.07-.25.26-.25.92,0,1.85,0,2.77,0,.19,0,.27-.03.26-.25-.02-.58-.02-1.15,0-1.73,0-.21-.07-.25-.26-.24-.91,0-1.83,0-2.74,0-.22,0-.3-.05-.29-.29.01-.98,0-1.96,0-2.94,0-.18-.04-.25-.24-.24-.68.01-1.37.01-2.05,0-.23,0-.29.06-.28.29.01.98,0,1.96,0,2.94,0,.18-.04.25-.24.24-.45-.02-.9,0-1.36,0-.2,0-.24.06-.23.24.01.58.01,1.15,0,1.73,0,.21.06.26.26.25.44-.01.89.01,1.33-.01.22-.01.25.06.24.25,0,1.04,0,2.08,0,3.12Z" style="fill: #eee; stroke-width: 0px;"/>
  <path d="M17.84,13.36c0,1.27-.06,2.48-.36,3.66-.26.99-.75,1.8-1.76,2.17-.62.23-1.27.27-1.92.26-.52,0-1.03-.07-1.52-.25-.84-.31-1.36-.91-1.66-1.74-.32-.9-.45-1.84-.49-2.79-.06-1.52-.08-3.05.27-4.55.1-.46.25-.9.46-1.32.4-.8,1.07-1.26,1.92-1.47.8-.19,1.62-.19,2.42,0,1.33.31,1.97,1.26,2.28,2.5.3,1.18.38,2.38.37,3.53Z" style="fill: #eee; stroke-width: 0px;"/>
</svg>