<?xml version="1.0" encoding="UTF-8"?>
<svg id="Capa_1" data-name="Capa 1" xmlns="http://www.w3.org/2000/svg" viewBox="0 0 37.62 33.48">
  <path d="M30.32,6.11c-.02.97-.12,1.92-.29,2.86-.08.46-.17.91-.28,1.36-.03.14-.06.13.11.18,1.06.32,2.11.69,3.11,1.17.96.45,1.86.98,2.68,1.66.48.4.92.84,1.28,1.36.32.47.55.97.65,1.53.1.62,0,1.22-.25,1.8-.27.62-.68,1.15-1.16,1.63-.67.67-1.44,1.21-2.27,1.68-1.23.7-2.54,1.22-3.89,1.64-.27.08-.22.03-.16.29.24.99.41,2,.48,3.02.09,1.11.07,2.21-.12,3.3-.13.71-.33,1.39-.67,2.02-.27.49-.6.92-1.06,1.26-.46.34-.98.52-1.54.59-.8.1-1.58-.05-2.34-.29-1.1-.35-2.09-.91-3.04-1.56-.88-.6-1.69-1.28-2.46-2.01-.04-.04-.09-.08-.13-.13-.09-.08-.09-.08-.17,0-.37.35-.75.69-1.14,1.01-.96.79-1.97,1.5-3.09,2.05-.75.37-1.52.67-2.34.83-.62.12-1.25.15-1.88.03-.79-.16-1.42-.56-1.91-1.2-.42-.54-.68-1.16-.86-1.82-.25-.92-.32-1.87-.31-2.82.02-1.42.24-2.81.56-4.19.06-.25.06-.25-.19-.33-1.43-.43-2.79-.98-4.08-1.74-.79-.47-1.53-1.01-2.17-1.67-.45-.46-.83-.97-1.1-1.57-.41-.93-.4-1.86.04-2.78.29-.6.7-1.11,1.18-1.57.73-.7,1.57-1.25,2.46-1.72,1.19-.63,2.45-1.1,3.74-1.48.2-.06.2-.06.15-.26-.31-1.27-.52-2.56-.58-3.87-.05-1.05,0-2.1.26-3.13.13-.52.3-1.01.57-1.48.36-.63.84-1.14,1.51-1.44.52-.23,1.07-.31,1.63-.29.87.03,1.69.27,2.49.6,1.17.49,2.23,1.17,3.24,1.94.6.46,1.18.96,1.73,1.48.12.11.09.12.22,0,.96-.92,1.99-1.76,3.11-2.47.86-.54,1.75-1,2.72-1.3.65-.2,1.31-.31,2-.26.99.07,1.78.5,2.38,1.29.43.57.69,1.21.87,1.89.23.89.31,1.8.31,2.72,0,.07,0,.15,0,.2ZM18.71,22.8c1.1.01,2.26-.03,3.43-.1.11,0,.16-.06.21-.14,1.2-1.83,2.3-3.72,3.27-5.68.05-.11.05-.19,0-.29-.91-1.81-1.91-3.57-3.03-5.26-.09-.14-.19-.29-.29-.43-.03-.05-.07-.08-.13-.08-.13,0-.27-.02-.4-.03-.7-.04-1.39-.07-2.09-.09-1.31-.03-2.62.01-3.93.09-.12,0-.25,0-.34.04-.11.05-.15.19-.22.29-1.18,1.76-2.23,3.59-3.15,5.5-.05.09-.05.17,0,.26.97,1.98,2.07,3.89,3.31,5.71.05.08.11.11.2.12,1.04.07,2.07.1,3.18.1ZM1.61,16.73c0,.09.01.2.04.31.1.44.34.81.62,1.15.53.65,1.19,1.15,1.89,1.58,1.26.78,2.62,1.33,4.03,1.75.14.04.14.04.18-.1.49-1.56,1.08-3.07,1.76-4.55.04-.09.05-.16,0-.25-.67-1.47-1.26-2.96-1.74-4.5-.04-.12-.04-.13-.16-.09-1.12.32-2.21.72-3.26,1.25-.78.39-1.52.85-2.17,1.43-.38.34-.71.71-.96,1.15-.14.26-.24.54-.24.87ZM8.88,27.7c0,.79.06,1.57.28,2.33.13.44.3.85.58,1.21.29.36.66.55,1.12.6.46.05.91-.01,1.36-.12.75-.19,1.45-.5,2.12-.88,1.22-.69,2.31-1.55,3.33-2.52.01-.01.02-.02.04-.03.04-.03.04-.06,0-.1-.03-.03-.05-.06-.08-.09-.72-.79-1.41-1.6-2.06-2.45-.33-.43-.65-.86-.97-1.3-.04-.06-.08-.11-.17-.12-.63-.05-1.25-.12-1.88-.19-.58-.07-1.16-.16-1.74-.26-.41-.07-.82-.15-1.23-.24-.13-.03-.14-.03-.17.11-.07.33-.15.65-.22.98-.2,1.01-.33,2.04-.33,3.07ZM28.78,27.43c0-.25,0-.54-.03-.83-.07-1.01-.23-2-.46-2.99-.05-.2,0-.19-.22-.14-1.56.35-3.14.58-4.74.73-.12.01-.2.05-.27.16-.71,1.03-1.46,2.03-2.27,2.98-.23.27-.46.53-.69.79-.09.11-.1.09.01.19.11.11.23.21.34.32.94.86,1.94,1.64,3.06,2.27.75.42,1.52.76,2.38.91.33.06.66.07,1,.02.48-.08.83-.34,1.09-.74.24-.35.4-.74.51-1.14.23-.81.31-1.64.3-2.53ZM17.71,5.29s-.06-.05-.09-.07c-.78-.73-1.6-1.41-2.49-2-.77-.52-1.58-.97-2.46-1.27-.59-.2-1.19-.34-1.82-.29-.46.04-.85.23-1.13.6-.12.15-.21.31-.3.48-.18.36-.29.75-.37,1.14-.2.99-.2,2-.12,3,.07.85.21,1.68.39,2.51.04.19.09.37.13.55.01.07.05.1.11.08.02,0,.04-.01.06-.02.86-.19,1.73-.35,2.6-.48.69-.1,1.38-.19,2.08-.25.14-.01.23-.07.31-.18.75-1.07,1.56-2.09,2.42-3.07.21-.24.43-.48.67-.74ZM19.97,5.28c0,.05.03.07.06.1,1.09,1.18,2.08,2.45,3.01,3.76.07.1.14.14.26.15.58.05,1.16.12,1.74.2.82.11,1.64.25,2.45.43.22.05.44.09.67.14.02-.07.03-.12.05-.18.08-.34.15-.69.21-1.03.24-1.31.36-2.62.25-3.95-.04-.55-.14-1.1-.31-1.62-.13-.39-.3-.77-.57-1.09-.28-.34-.64-.52-1.08-.57-.42-.04-.83.02-1.24.12-.73.19-1.41.51-2.07.88-1.04.6-1.98,1.33-2.87,2.13-.19.18-.38.36-.57.53ZM36.01,16.85c0-.43-.09-.7-.23-.96-.17-.33-.41-.61-.67-.88-.47-.47-1-.86-1.56-1.2-1.29-.79-2.69-1.33-4.14-1.76-.12-.04-.13-.03-.17.1-.47,1.51-1.06,2.97-1.72,4.4-.05.11-.05.2,0,.31.68,1.44,1.28,2.91,1.77,4.42.01.04.03.08.04.13.01.04.03.06.07.04.03,0,.06-.02.1-.03,1.05-.32,2.07-.71,3.05-1.21.83-.42,1.61-.91,2.3-1.54.38-.35.71-.73.94-1.19.12-.24.2-.5.2-.64ZM26.55,18.58c-.7,1.35-1.44,2.62-2.24,3.9,1.2-.15,2.36-.33,3.5-.6-.36-1.13-.78-2.21-1.26-3.3ZM13.32,22.49c-.78-1.25-1.52-2.52-2.21-3.85-.47,1.1-.87,2.19-1.22,3.32,1.14.25,2.27.43,3.43.53ZM16.62,24.37c.04.05.05.07.07.1.29.39.6.77.9,1.14.39.47.78.93,1.2,1.38.09.1.09.1.18,0,0,0,.01-.02.02-.02.71-.79,1.38-1.62,2.01-2.48.02-.03.06-.05.04-.12-1.46.06-2.92.06-4.42,0ZM24.31,11.02c.8,1.26,1.52,2.52,2.22,3.84.46-1.08.86-2.14,1.2-3.24-1.14-.26-2.26-.45-3.43-.6ZM21,9.12s0-.07-.02-.09c-.65-.86-1.33-1.69-2.06-2.49-.08-.09-.09-.09-.18,0-.73.79-1.41,1.61-2.06,2.47-.02.03-.06.05-.03.1,1.45-.07,2.9-.07,4.35,0ZM11.12,14.82c.67-1.29,1.4-2.55,2.19-3.8-.05,0-.07,0-.1,0-.88.11-1.76.25-2.64.43-.19.04-.38.08-.57.12-.07.01-.1.04-.07.11,0,.02.01.04.02.06.32,1,.68,1.98,1.08,2.95.02.04.02.09.08.12Z" style="fill: #eee; stroke-width: 0px;"/>
  <path d="M18.81,20.07c-1.86,0-3.36-1.51-3.36-3.37,0-1.86,1.51-3.36,3.37-3.35,1.85,0,3.35,1.51,3.35,3.36,0,1.85-1.51,3.37-3.36,3.37Z" style="fill: #eee; stroke-width: 0px;"/>
</svg>