<?xml version="1.0" encoding="UTF-8"?>
<svg id="Capa_1" data-name="Capa 1" xmlns="http://www.w3.org/2000/svg" viewBox="0 0 24.14 27.54">
  <path d="M11.5,0c.38,0,.76,0,1.14,0,.37.09.75.08,1.13.06.37.08.76.06,1.13.11.36.17.75.11,1.13.13,0,.06.02.11.1.1.35-.04.69.07,1.04.11.34.15.7.22,1.07.24.3.16.65.18.97.31.45.18.9.33,1.36.49.48.28,1.01.5,1.48.81.27.18.53.36.79.54.09.13.2.25.34.34.27.34.55.67.75,1.07.05.14.1.27.16.41,0,.08.01.16.07.22-.05.35.03.7-.05,1.06-.17.68-.58,1.21-1.03,1.71h0s-.04.04-.06.06c-.06.04-.11.08-.17.12-.74.62-1.58,1.06-2.44,1.46-.32.12-.64.24-.95.35-.34.11-.68.22-1.03.33-.04,0-.07,0-.11.01-.44.11-.87.22-1.31.33-.32.03-.64.08-.96.17-.46.04-.91.08-1.36.17-.3.02-.6-.03-.9.07-.38.01-.76-.08-1.14.06-.38,0-.75,0-1.13,0-.37-.14-.76-.04-1.14-.06-.29-.1-.6-.06-.9-.07-.45-.09-.91-.13-1.36-.17-.31-.11-.64-.12-.96-.17-.39-.12-.79-.21-1.2-.27-.26-.15-.56-.16-.84-.26-.51-.19-1.02-.37-1.53-.55-.78-.43-1.59-.82-2.27-1.4-.07-.06-.15-.12-.22-.18-.3-.33-.57-.69-.8-1.08-.03-.06-.04-.13-.1-.17C.02,5.97-.02,5.46.02,4.94c.05-.19.11-.38.16-.57.22-.41.49-.78.79-1.13.11-.1.23-.2.34-.3.26-.23.55-.42.84-.61.45-.31.97-.49,1.43-.78.5-.18,1.01-.35,1.51-.54.27-.1.56-.11.81-.26.35-.11.74-.04,1.07-.24.38-.06.76-.11,1.13-.21.38-.04.75-.09,1.13-.13.38-.04.76-.07,1.14-.11.38.02.76.03,1.13-.06Z" style="fill: #eee; stroke-width: 0px;"/>
  <path d="M4.71,26.45c-.37-.16-.74-.33-1.14-.44-.02,0-.03-.01-.05-.01-.36-.19-.72-.38-1.08-.56-.1-.07-.2-.14-.3-.2-.57-.37-1.08-.79-1.5-1.32-.31-.39-.51-.83-.65-1.3v-4.55c.04.37.12.72.3,1.04.46.96,1.23,1.6,2.14,2.1.1.05.16.16.28.17.25.16.52.29.79.4.38.21.79.34,1.19.5.33.11.68.2,1.01.31.4.14.78.24,1.2.26.39.12.79.2,1.19.21.1.09.21.13.35.12.2,0,.4,0,.61,0,.04.09.11.11.21.11.96.03,1.93.08,2.89.11.32,0,.63-.08.95-.05.46.04.91-.06,1.37-.07.19,0,.41,0,.59-.09.12,0,.24,0,.36,0,.2-.01.43.07.6-.12.42.06.8-.12,1.2-.21.79-.13,1.56-.36,2.32-.63l1.02-.41c.32-.08.58-.27.85-.44.13,0,.19-.12.28-.17.74-.37,1.35-.91,1.84-1.56.1-.14.27-.26.26-.47.24-.34.3-.73.29-1.13.12.21,0,.45.06.67,0,1.3,0,2.6,0,3.91-.21.79-.66,1.42-1.26,1.96-.37.33-.79.58-1.19.87-.28.15-.57.3-.85.45-.09.04-.18.08-.28.13-.39.12-.76.28-1.14.44-.45.12-.9.24-1.35.38-.32.1-.65.14-.97.21-.36.07-.72.15-1.08.22-.39-.07-.75.15-1.13.12-.38.04-.76.07-1.13.11-.16-.03-.31,0-.45.06-.72,0-1.45,0-2.17,0-.19,0-.37.01-.55-.05-.07,0-.15,0-.22,0-.38-.04-.76-.08-1.13-.11-.38-.04-.75-.08-1.13-.11-.38-.08-.76-.15-1.13-.23-.77-.13-1.51-.38-2.26-.58Z" style="fill: #eee; stroke-width: 0px;"/>
  <path d="M.07,7.31c.07.19.07.41.21.58,0,.04,0,.09.05.11.03.11.06.22.17.29.19.45.54.76.89,1.06.31.27.63.55,1.03.69,0,0,0,0,0,0,.04.1.12.18.23.22.3.13.61.26.91.39.35.22.74.34,1.14.45.74.26,1.5.45,2.26.62.08.01.17.03.25.04.3.06.59.12.89.18.38.04.75.08,1.13.12.38.04.75.19,1.13.11.36,0,.71,0,1.07.01.42.09.84.09,1.25,0,.36,0,.71,0,1.07-.01.38.02.75-.09,1.13-.11.36-.06.73-.03,1.08-.16.4,0,.79-.13,1.18-.19.18.08.32-.07.48-.11.39-.1.79-.18,1.17-.33.13,0,.24-.04.34-.11.06-.01.13.02.17-.05.46-.04.83-.33,1.25-.48.38-.19.79-.33,1.13-.61,0,0,0,0,0,0,.45-.21.85-.49,1.18-.86.13-.05.21-.17.29-.27.29-.3.54-.62.68-1.02.14-.17.17-.36.18-.57.11-.12,0-.29.09-.44,0,.13.01.23.02.32,0,1.42,0,2.83,0,4.25-.07.19-.13.38-.2.57-.22.54-.6.95-1,1.36l-.11.11c-.68.54-1.44.96-2.21,1.35-.43.06-.8.28-1.19.46-.21.02-.39.12-.58.17-.5.14-1.01.27-1.51.41-.08,0-.17-.04-.23.04h0c-.44.06-.88.11-1.31.22-.3.01-.61-.03-.9.11-.44-.02-.87.1-1.3.06-.05,0-.09,0-.12.05-.28,0-.56,0-.84.01-.38,0-.76,0-1.14,0-.28,0-.56,0-.84-.01-.47-.08-.94-.09-1.42-.11-.3-.07-.6-.1-.9-.11-.49-.09-.99-.18-1.48-.27-.72-.19-1.43-.39-2.15-.58-.38-.15-.74-.33-1.14-.44-.09-.05-.18-.1-.27-.14-.28-.13-.57-.24-.83-.4-.38-.24-.74-.52-1.11-.78-.04-.07-.1-.12-.17-.17-.5-.5-.95-1.05-1.14-1.75-.06-.19-.05-.39-.05-.58,0-1.32,0-2.63-.01-3.95.03-.06-.02-.13.07-.21v.43Z" style="fill: #eee; stroke-width: 0px;"/>
  <path d="M.25,13.43c.19.44.49.8.79,1.16.02.02.07.03.1.04.06.06.11.11.17.17.31.37.72.6,1.14.83.04.02.07.05.11.07.36.22.75.4,1.13.57.31.09.56.35.9.33.77.31,1.56.55,2.38.68.07.07.16.11.27.1.3-.02.58.06.87.11.38.04.75.16,1.14.11.09.06.17.13.3.12.28-.01.56,0,.83,0,1.13.11,2.27.11,3.4,0,.38-.02.77.11,1.13-.11.39.04.76-.07,1.14-.11.4.05.75-.16,1.13-.23.75-.11,1.47-.34,2.19-.58.06-.02.16,0,.2-.09.35-.1.7-.22,1.02-.4.36-.14.7-.31,1.02-.51.04-.02.07-.05.11-.07.83-.46,1.54-1.05,2.03-1.88.08-.13.2-.25.19-.42.06-.09.09-.18.09-.28.1-.16.06-.34.13-.52,0,.42,0,.84,0,1.27,0,.99,0,1.98,0,2.97,0,.45-.16.84-.41,1.22-.19.28-.36.56-.6.8-.75.74-1.67,1.24-2.61,1.68-.36.14-.71.27-1.07.41-.31.09-.62.19-.93.27-.44.12-.89.23-1.34.35-.13-.04-.26.03-.37.06-.25.08-.52-.03-.76.11-.37.09-.77,0-1.13.17-.37.06-.76,0-1.13.11-.38,0-.76,0-1.14,0-.38-.05-.75.12-1.13,0-.38,0-.76,0-1.14,0-.37-.11-.76-.05-1.13-.11-.45-.06-.91-.11-1.36-.17-.29-.11-.6-.12-.9-.17-.04-.02-.08-.05-.12-.06-.77-.14-1.52-.36-2.26-.62-.32-.13-.66-.18-.96-.35-.17-.07-.34-.15-.51-.22-.23-.13-.45-.25-.68-.38-.73-.46-1.43-.95-1.92-1.68C.18,17.66,0,17.12,0,16.49c.02-1.25,0-2.49,0-3.74,0-.08,0-.16.02-.24.04.22.02.45.15.64-.02.1.05.18.07.28Z" style="fill: #eee; stroke-width: 0px;"/>
</svg>