<?xml version="1.0" encoding="UTF-8"?>
<svg id="Capa_1" data-name="Capa 1" xmlns="http://www.w3.org/2000/svg" viewBox="0 0 24.38 26.04">
  <defs>
    <style>
      .cls-1 {
        fill: #eee;
        stroke-width: 0px;
      }
    </style>
  </defs>
  <path class="cls-1" d="M22.49,4.06c-.26-.45-.56-.9-1.32-1.1.7,1.11,1.13,2.13,1.49,3.17,2.74,7.86-2.01,15.55-10.01,16.2-6.72.55-11.91-5.17-10.59-11.67.96-4.73,6.53-7.58,10.7-5.48,3.51,1.77,4.31,6.38,1.53,8.8-1.15,1-2.84,1.21-4.01.5-1.17-.71-1.35-1.91-.28-2.96.1.99.39,1.63,1.38,1.61.98-.02,1.55-.54,1.84-1.42.56-1.71-.66-3.59-2.54-3.89-3-.49-5.49,2.2-4.92,5.31.77,4.15,5.53,6.23,9.26,4.05,5.08-2.97,4.95-10.34-.27-13.65-3.31-2.09-6.73-1.86-9.97.08C1.2,5.74-.24,9.15.03,13.18c.63,9.36,10.59,12.72,17.25,9.57,7.44-3.53,8.78-12.55,5.22-18.68Z"/>
  <path class="cls-1" d="M11.36,1.09c5.66.9,9.29,5.81,8.21,11.17-.21,1.05-.75,1.97-1.33,3.18,1.81-1.84,2.51-4.83,1.96-7.45C18.98,2.17,13.44-.3,8.8.03c-2,.14-3.95.55-5.33,2.25-.04.07-.08.14-.13.21.09,0,.18-.01.28-.02,2.43-1.31,4.98-1.81,7.74-1.37Z"/>
  <path class="cls-1" d="M.31,18.34c1.12,5.4,8.86,9.35,13.71,7.01-5.97.39-10.58-1.85-13.71-7.01Z"/>
</svg>