<?xml version="1.0" encoding="UTF-8"?>
<svg id="Capa_1" data-name="Capa 1" xmlns="http://www.w3.org/2000/svg" version="1.1" viewBox="0 0 101.6 117.3">
  <defs>
    <style>
      .cls-1 {
        fill: #81d4f7;
      }

      .cls-1, .cls-2 {
        stroke-width: 0px;
      }

      .cls-2 {
        fill: #0c577e;
      }

      .cls-3 {
        fill: none;
        stroke: #81d4f7;
        stroke-width: 5px;
      }
    </style>
  </defs>
  <g>
    <path class="cls-1" d="M24.2,21.1c4.3-4.2,9.4-5.6,14.5-6.7,17.6-4.1,37.4,4.5,46,20.4,9,16.6,6.5,36.8-9.3,49-12.8,9.8-33.5,10.1-44.7-6-7-10.1-6.2-26.5,6.6-33.8,7.7-4.4,18.1-1.8,21.5,5.3,1.4,2.9,1.4,5.9-.3,8.8-.6,1-1.6,1.7-2.8,1.7-1.2,0-1.5-.9-1.9-1.8-1.2-3.3-3.2-5.7-7.1-5.6-3.6,0-7.6,3.3-8.8,6.8-2.9,8.7,3.2,18.5,13,20.7,11.3,2.6,23.1-3.6,28-14.8,6.5-14.9.5-32.5-13.9-41.2-11.4-6.9-23.3-7.1-35.6-3.8-1.5.4-3,1.2-5.2,1.1h0Z"/>
    <path class="cls-2" d="M77.5,96.1c-3.1,2.8-6.1,4.3-9.4,5.5-25.3,9.2-54-8.7-56.2-35.2-1.7-19.7,12-37.2,30.8-39.4,15.2-1.8,29.4,8.1,32.1,22.3,2.2,11.1-3.7,21.8-13.9,25.3-8.1,2.8-16.6-1.1-18.9-8.6-.9-3-.2-6.1,1.9-7.5,1.5-1.1,2.9-1.1,3.6.9,1.3,3.6,3.3,6,7.5,5.7,3.9-.3,7.3-3.2,8.7-7.3,2.6-8-2.9-17.2-11.9-20-11.1-3.4-23,2.2-28.8,13.6-7,13.8-2,31.6,11.7,40.9,12.1,8.3,25.3,8.7,38.9,4.6.8-.2,1.6-.5,2.5-.7.3,0,.6,0,1.4,0h0Z"/>
  </g>
  <polygon class="cls-3" points="50.8 .6 .5 29.6 .5 87.7 50.8 116.8 101.1 87.7 101.1 29.6 50.8 .6"/>
</svg>