<?xml version="1.0" encoding="UTF-8"?>
<svg id="Capa_1" data-name="Capa 1" xmlns="http://www.w3.org/2000/svg" viewBox="0 0 79.13 91.37">
  <defs>
    <style>
      .cls-1 {
        fill: none;
        stroke: #81d4f7;
        stroke-width: 3px;
      }

      .cls-2 {
        fill: #81d4f7;
      }

      .cls-2, .cls-3 {
        stroke-width: 0px;
      }

      .cls-3 {
        fill: #0e577e;
      }
    </style>
  </defs>
  <g>
    <path class="cls-2" d="M39.01,81.87c-7.17-.08-13.48-2.75-18.9-7.39-10.19-8.73-15.12-22.95-9.8-36.51,6.19-15.76,25.41-24.16,40.7-13.25,10.66,7.61,12.24,23.26,3.24,32.05-4.69,4.58-10.37,5.95-16.75,4.98-1.11-.17-2.38-1.13-3.42.33-.25.35-.66-.02-.94-.25-4.03-3.31-6.67-8.84-4.93-14.16.58-1.76,1.63-3.12,3.25-4.06,1.94-1.13,2.86-.74,3.21,1.44.09.58.18,1.17.26,1.76.74,5.89,5.29,8.78,11.01,6.98,5.96-1.87,9.51-8.52,8.17-15.14-2.24-11.09-13.17-15.65-21.27-14.7-15.25,1.8-24.01,16.45-21.93,30.01,2.2,14.31,10.78,23.01,24.51,26.93.64.18,1.26.41,1.9.59.55.15,1.12.26,1.68.39Z"/>
    <path class="cls-3" d="M45.36,29.11c4.57,3.46,6.64,7.98,5.76,13.72-.27,1.74-1.11,3.21-2.49,4.32-.88.71-1.86,1.4-3.02.99-1.33-.47-1.1-1.77-1.17-2.85-.28-4.74-3.12-7.9-7.39-8.23-4.04-.31-7.2,1.28-9.59,4.47-4.44,5.91-3.35,14.74,2.5,20.35,7.75,7.43,20.4,7.45,29.14.03,11.56-9.82,12.72-27.75,2.59-40.15-4.63-5.67-10.47-9.49-17.57-11.35-.55-.14-1.09-.33-1.8-.54.97-.55,1.81-.38,2.61-.18,21.13,5.31,31.1,27.28,23.54,44.69-6.87,15.83-25.73,21.98-39.55,12.77-11.64-7.76-13.2-24.7-3.04-33.31,4.85-4.11,10.46-5.19,16.63-4.03.98.18,2.33,1.12,2.88-.72l-.03.03Z"/>
  </g>
  <polyline class="cls-1" points=".5 23.13 .5 68.24 39.57 90.8 78.63 68.24 78.63 23.13 39.57 .58 .5 23.13"/>
</svg>