<?xml version="1.0" encoding="UTF-8"?>
<svg id="Capa_1" data-name="Capa 1" xmlns="http://www.w3.org/2000/svg" viewBox="0 0 29.69 29.65">
  <defs>
    <style>
      .cls-1 {
        fill: #eee;
        stroke-width: 0px;
      }
    </style>
  </defs>
  <path class="cls-1" d="M15.93,0c.34.12.69.1,1.04.16,5.7.86,10.39,4.78,12.02,10.3,1.6,5.43.46,10.33-3.37,14.52-2.35,2.58-5.32,4.11-8.79,4.53-5.27.64-9.71-1.05-13.24-5.03-1.94-2.19-3.05-4.77-3.46-7.66-.04-.28-.02-.57-.13-.84v-2.32c.08-.04.05-.11.06-.18.09-1.03.26-2.05.59-3.03C2.66,4.69,6.65,1.23,12.69.16c.33-.06.67-.03.98-.16h2.26ZM14.83,1.05c-7.59,0-13.77,6.17-13.79,13.77-.02,7.59,6.18,13.8,13.78,13.8,7.59,0,13.77-6.17,13.79-13.77.02-7.59-6.18-13.8-13.78-13.8Z"/>
  <path class="cls-1" d="M23.31,5.79c-.68.01-1.26.18-1.74.61-.52.47-.79,1.06-.79,1.76,0,.25.11.47.24.67.39.57.8,1.13,1.16,1.73.97,1.59,1.13,3.31.74,5.1-.33,1.47-.92,2.86-1.39,4.28-.2.59-.41,1.18-.64,1.83-1.5-4.23-2.97-8.4-4.46-12.62.52,0,1.01-.01,1.49,0,.24,0,.33-.05.3-.3-.02-.22-.02-.44,0-.67.02-.21-.07-.25-.26-.25-2.37,0-4.75,0-7.12,0-.21,0-.29.05-.27.27.02.23.02.46,0,.69-.02.21.07.26.26.25.41-.01.83,0,1.24,0,.17,0,.25.04.31.21.59,1.7,1.2,3.4,1.8,5.09.04.11.05.22,0,.34-.8,2.28-1.6,4.56-2.4,6.84,0,.03-.02.05-.06.12-1.49-4.2-2.96-8.37-4.46-12.6.49,0,.93-.01,1.38,0,.22,0,.29-.06.27-.27-.03-.3.13-.7-.07-.89-.18-.17-.57-.05-.87-.05-1.04,0-2.08,0-3.13,0-.09,0-.19,0-.3,0C8.36,1.98,17.29.26,23.31,5.79Z"/>
  <path class="cls-1" d="M14.87,16.45c.44,1.23.86,2.43,1.29,3.63.75,2.11,1.49,4.23,2.25,6.34.08.24.03.29-.2.35-2.33.64-4.65.62-6.96-.06-.15-.04-.26-.05-.17-.27,1.25-3.27,2.48-6.55,3.72-9.83.01-.04.03-.07.07-.15Z"/>
  <path class="cls-1" d="M27.21,15.62c-.24,3.3-1.58,6.09-4,8.35-.75.69-1.56,1.29-2.47,1.75-.07-.1.01-.19.05-.28,1.45-4.06,2.9-8.11,4.35-12.16.48-1.36.68-2.74.53-4.18,0-.07,0-.15,0-.28.3.46.49.91.67,1.36.71,1.74,1.01,3.56.87,5.43Z"/>
  <path class="cls-1" d="M3.42,9.99c1.87,5.29,3.72,10.51,5.58,15.77C3.43,22.86.87,15.95,3.42,9.99Z"/>
</svg>