<svg xmlns="http://www.w3.org/2000/svg" version="1.1" xmlns:xlink="http://www.w3.org/1999/xlink" width="1000" height="1000"><style>
    #light-icon {
      display: inline;
    }
    #dark-icon {
      display: none;
    }

    @media (prefers-color-scheme: dark) {
      #light-icon {
        display: none;
      }
      #dark-icon {
        display: inline;
      }
    }
  </style><g id="light-icon"><svg xmlns="http://www.w3.org/2000/svg" version="1.1" xmlns:xlink="http://www.w3.org/1999/xlink" width="1000" height="1000"><g clip-path="url(#SvgjsClipPath1136)"><rect width="1000" height="1000" fill="#000000"></rect><g transform="matrix(9.455626097528029,0,0,9.455626097528029,189.80818587059304,150)"><svg xmlns="http://www.w3.org/2000/svg" version="1.1" xmlns:xlink="http://www.w3.org/1999/xlink" width="65.61" height="74.03"><svg id="Capa_1" data-name="Capa 1" xmlns="http://www.w3.org/2000/svg" viewBox="0 0 65.61 74.03">
  <g>
    <path d="M22.38,66.1c-6.08-2.49-10.72-6.82-14.06-12.47-6.27-10.63-6.56-24,1.69-33.37,9.6-10.88,28.27-11.31,38.28,2.84,6.98,9.87,4.03,23.28-6.05,27.48-5.25,2.19-10.46,1.4-15.63-1.56-.9-.51-1.72-1.73-3-.88-.31.2-.56-.24-.73-.52-2.52-4.09-3.25-9.53-.3-13.32.98-1.25,2.24-2.02,3.88-2.24,1.96-.27,2.64.36,2.34,2.27-.08.51-.17,1.02-.26,1.54-.99,5.1,2.09,9.02,7.45,9.47,5.59.47,10.44-3.8,11.11-9.7,1.14-9.89-6.91-17.33-14.06-19.29-13.47-3.67-24.96,5.43-26.91,17.3-2.06,12.52,2.85,22.58,13.46,30.45.5.36.96.76,1.46,1.13.43.31.88.59,1.32.89h0Z" style="fill: #81d4f7; stroke-width: 0px;"></path>
    <path d="M42.29,24.81c2.94,4.39,3.46,8.81,1.13,13.24-.71,1.34-1.83,2.27-3.31,2.72-.94.29-1.97.52-2.84-.21-1-.84-.45-1.83-.21-2.74,1.06-4-.48-7.56-4.03-9.27-3.35-1.62-6.48-1.38-9.39.44-5.4,3.37-6.9,11-3.46,17.6,4.55,8.73,15.32,13.02,24.79,9.87,12.54-4.18,18.45-18.55,13.24-32.18-2.38-6.23-6.3-11.35-11.84-15.28-.43-.3-.84-.64-1.38-1.05.98-.13,1.65.3,2.27.73,16.53,11.51,18.97,32.96,7.75,44.74-10.2,10.71-27.94,9.4-37.17-2.85-7.77-10.32-4.45-24.79,6.57-28.45,5.26-1.75,10.33-.74,15.26,2.3.78.48,1.68,1.71,2.65.38h-.03s0,0,0,0Z" style="fill: #0e577e; stroke-width: 0px;"></path>
  </g>
  <polygon points="1 54.94 32.81 72.88 64.61 54.94 64.61 19.08 32.81 1.15 1 19.08 1 54.94" style="fill: none; stroke: #81d4f7; stroke-miterlimit: 10; stroke-width: 2px;"></polygon>
</svg></svg></g></g><defs><clipPath id="SvgjsClipPath1136"><rect width="1000" height="1000" x="0" y="0" rx="300" ry="300"></rect></clipPath></defs></svg></g><g id="dark-icon"><svg xmlns="http://www.w3.org/2000/svg" version="1.1" xmlns:xlink="http://www.w3.org/1999/xlink" width="1000" height="1000"><g><g transform="matrix(13.5080372821829,0,0,13.5080372821829,56.86883695798997,0)"><svg xmlns="http://www.w3.org/2000/svg" version="1.1" xmlns:xlink="http://www.w3.org/1999/xlink" width="65.61" height="74.03"><svg id="Capa_1" data-name="Capa 1" xmlns="http://www.w3.org/2000/svg" viewBox="0 0 65.61 74.03">
  <g>
    <path d="M22.38,66.1c-6.08-2.49-10.72-6.82-14.06-12.47-6.27-10.63-6.56-24,1.69-33.37,9.6-10.88,28.27-11.31,38.28,2.84,6.98,9.87,4.03,23.28-6.05,27.48-5.25,2.19-10.46,1.4-15.63-1.56-.9-.51-1.72-1.73-3-.88-.31.2-.56-.24-.73-.52-2.52-4.09-3.25-9.53-.3-13.32.98-1.25,2.24-2.02,3.88-2.24,1.96-.27,2.64.36,2.34,2.27-.08.51-.17,1.02-.26,1.54-.99,5.1,2.09,9.02,7.45,9.47,5.59.47,10.44-3.8,11.11-9.7,1.14-9.89-6.91-17.33-14.06-19.29-13.47-3.67-24.96,5.43-26.91,17.3-2.06,12.52,2.85,22.58,13.46,30.45.5.36.96.76,1.46,1.13.43.31.88.59,1.32.89h0Z" style="fill: #81d4f7; stroke-width: 0px;"></path>
    <path d="M42.29,24.81c2.94,4.39,3.46,8.81,1.13,13.24-.71,1.34-1.83,2.27-3.31,2.72-.94.29-1.97.52-2.84-.21-1-.84-.45-1.83-.21-2.74,1.06-4-.48-7.56-4.03-9.27-3.35-1.62-6.48-1.38-9.39.44-5.4,3.37-6.9,11-3.46,17.6,4.55,8.73,15.32,13.02,24.79,9.87,12.54-4.18,18.45-18.55,13.24-32.18-2.38-6.23-6.3-11.35-11.84-15.28-.43-.3-.84-.64-1.38-1.05.98-.13,1.65.3,2.27.73,16.53,11.51,18.97,32.96,7.75,44.74-10.2,10.71-27.94,9.4-37.17-2.85-7.77-10.32-4.45-24.79,6.57-28.45,5.26-1.75,10.33-.74,15.26,2.3.78.48,1.68,1.71,2.65.38h-.03s0,0,0,0Z" style="fill: #0e577e; stroke-width: 0px;"></path>
  </g>
  <polygon points="1 54.94 32.81 72.88 64.61 54.94 64.61 19.08 32.81 1.15 1 19.08 1 54.94" style="fill: none; stroke: #81d4f7; stroke-miterlimit: 10; stroke-width: 2px;"></polygon>
</svg></svg></g></g></svg></g></svg>